<svg xmlns="http://www.w3.org/2000/svg" version="1.1" width="600px" height="600px" viewBox="0 0 200 200" style="overflow:hidden!important;"><defs id="SvgjsDefs4775"><radialGradient id="SvgjsRadialGradient4841" cx="100" cy="114" r="41" gradientUnits="userSpaceOnUse" class="svga-on-canvas-facehighlight-gradient-single-0"><stop id="SvgjsStop4842" stop-opacity="0.5" stop-color="#ffd5c4" offset="0" ></stop><stop id="SvgjsStop4843" stop-opacity="0" stop-color="#f4baa3" offset="0.9" ></stop></radialGradient><radialGradient id="SvgjsRadialGradient4845" cx="100" cy="54" r="37" gradientUnits="userSpaceOnUse" class="svga-on-canvas-facehighlight-gradient-single-1"><stop id="SvgjsStop4846" stop-opacity="0.5" stop-color="#ffd5c4" offset="0" ></stop><stop id="SvgjsStop4847" stop-opacity="0" stop-color="#f4baa3" offset="0.9" ></stop></radialGradient><linearGradient id="SvgjsLinearGradient5001" x1="100" y1="171" x2="100" y2="131" gradientUnits="userSpaceOnUse" class="svga-on-canvas-chinshadow-gradient-single-0"><stop id="SvgjsStop5002" stop-opacity="0.8" stop-color="#e59e82" offset="0" ></stop><stop id="SvgjsStop5003" stop-opacity="1" stop-color="#c66c49" offset="0.7" ></stop></linearGradient><radialGradient id="SvgjsRadialGradient5016" cx="126.035" cy="84.795" r="10.908" gradientTransform="matrix(-1 0 0 1 200 0)" gradientUnits="userSpaceOnUse" class="svga-on-canvas-eyesback-gradient-left-0"><stop id="SvgjsStop5017" stop-opacity="1" stop-color="#ffffff" offset="0" ></stop><stop id="SvgjsStop5018" stop-opacity="1" stop-color="#fdfefe" offset="0.544" ></stop><stop id="SvgjsStop5019" stop-opacity="1" stop-color="#f6f8f9" offset="0.74" ></stop><stop id="SvgjsStop5020" stop-opacity="1" stop-color="#eaeff2" offset="0.879" ></stop><stop id="SvgjsStop5021" stop-opacity="1" stop-color="#d9e3e8" offset="0.992" ></stop><stop id="SvgjsStop5022" stop-opacity="1" stop-color="#d8e2e7" offset="1" ></stop></radialGradient><radialGradient id="SvgjsRadialGradient5024" cx="125.637" cy="84.795" r="10.908" gradientUnits="userSpaceOnUse" class="svga-on-canvas-eyesback-gradient-right-0"><stop id="SvgjsStop5025" stop-opacity="1" stop-color="#ffffff" offset="0" ></stop><stop id="SvgjsStop5026" stop-opacity="1" stop-color="#fdfefe" offset="0.544" ></stop><stop id="SvgjsStop5027" stop-opacity="1" stop-color="#f6f8f9" offset="0.74" ></stop><stop id="SvgjsStop5028" stop-opacity="1" stop-color="#eaeff2" offset="0.879" ></stop><stop id="SvgjsStop5029" stop-opacity="1" stop-color="#d9e3e8" offset="0.992" ></stop><stop id="SvgjsStop5030" stop-opacity="1" stop-color="#d8e2e7" offset="1" ></stop></radialGradient><radialGradient id="SvgjsRadialGradient5032" cx="126.035" cy="84.795" r="10.908" gradientTransform="matrix(-1 0 0 1 200 0)" gradientUnits="userSpaceOnUse" class="svga-on-canvas-eyesfront-gradient-left-0"><stop id="SvgjsStop5033" stop-opacity="1" stop-color="#ffffff" offset="0" ></stop><stop id="SvgjsStop5034" stop-opacity="1" stop-color="#fdfefe" offset="0.544" ></stop><stop id="SvgjsStop5035" stop-opacity="1" stop-color="#f6f8f9" offset="0.74" ></stop><stop id="SvgjsStop5036" stop-opacity="1" stop-color="#eaeff2" offset="0.879" ></stop><stop id="SvgjsStop5037" stop-opacity="1" stop-color="#d9e3e8" offset="0.992" ></stop><stop id="SvgjsStop5038" stop-opacity="1" stop-color="#d8e2e7" offset="1" ></stop></radialGradient><radialGradient id="SvgjsRadialGradient5042" cx="123.813" cy="83.449" fx="136.255" fy="83.484" r="17.696" gradientTransform="matrix(0.9998 0.0208 0.0166 -0.7998 -48.9873 147.6178)" gradientUnits="userSpaceOnUse" class="svga-on-canvas-eyesfront-gradient-left-3"><stop id="SvgjsStop5043" stop-opacity="1" stop-color="#e59e82" offset="0" ></stop><stop id="SvgjsStop5044" stop-opacity="0.3" stop-color="#e59e82" offset="0.7" ></stop><stop id="SvgjsStop5045" stop-opacity="0" stop-color="#f4baa3" offset="1" ></stop></radialGradient><radialGradient id="SvgjsRadialGradient5047" cx="122.749" cy="106.061" r="28.568" gradientTransform="matrix(-0.8829 -0.4695 -0.4131 0.777 229.4492 81.2793)" gradientUnits="userSpaceOnUse" class="svga-on-canvas-eyesfront-gradient-left-4"><stop id="SvgjsStop5048" stop-opacity="0" stop-color="#000000" offset="0.9" ></stop><stop id="SvgjsStop5049" stop-opacity="0.2" stop-color="#000000" offset="1" ></stop></radialGradient><radialGradient id="SvgjsRadialGradient5053" cx="125.637" cy="84.795" r="10.908" gradientUnits="userSpaceOnUse" class="svga-on-canvas-eyesfront-gradient-right-0"><stop id="SvgjsStop5054" stop-opacity="1" stop-color="#ffffff" offset="0" ></stop><stop id="SvgjsStop5055" stop-opacity="1" stop-color="#fdfefe" offset="0.544" ></stop><stop id="SvgjsStop5056" stop-opacity="1" stop-color="#f6f8f9" offset="0.74" ></stop><stop id="SvgjsStop5057" stop-opacity="1" stop-color="#eaeff2" offset="0.879" ></stop><stop id="SvgjsStop5058" stop-opacity="1" stop-color="#d9e3e8" offset="0.992" ></stop><stop id="SvgjsStop5059" stop-opacity="1" stop-color="#d8e2e7" offset="1" ></stop></radialGradient><radialGradient id="SvgjsRadialGradient5063" cx="123.414" cy="83.449" fx="135.857" fy="83.484" r="17.696" gradientTransform="matrix(-0.9998 0.0208 -0.0166 -0.7998 248.1905 147.6261)" gradientUnits="userSpaceOnUse" class="svga-on-canvas-eyesfront-gradient-right-3"><stop id="SvgjsStop5064" stop-opacity="1" stop-color="#e59e82" offset="0" ></stop><stop id="SvgjsStop5065" stop-opacity="0.3" stop-color="#e59e82" offset="0.7" ></stop><stop id="SvgjsStop5066" stop-opacity="0" stop-color="#f4baa3" offset="1" ></stop></radialGradient><radialGradient id="SvgjsRadialGradient5068" cx="122.351" cy="106.061" r="28.568" gradientTransform="matrix(0.8829 -0.4695 0.4131 0.777 -29.4959 81.0923)" gradientUnits="userSpaceOnUse" class="svga-on-canvas-eyesfront-gradient-right-4"><stop id="SvgjsStop5069" stop-opacity="0" stop-color="#000000" offset="0.9" ></stop><stop id="SvgjsStop5070" stop-opacity="0.2" stop-color="#000000" offset="1" ></stop></radialGradient><radialGradient id="SvgjsRadialGradient5075" cx="-568.659" cy="-521.042" r="59.751" gradientTransform="matrix(0.096 -0.0248 0.0245 0.0961 141.2814 119.9893)" gradientUnits="userSpaceOnUse" class="svga-on-canvas-eyesiris-gradient-left-1"><stop id="SvgjsStop5076" stop-opacity="1" stop-color="#ffffff" offset="0" ></stop><stop id="SvgjsStop5077" stop-opacity="0" stop-color="#ffffff" offset="1" ></stop></radialGradient><radialGradient id="SvgjsRadialGradient5079" cx="-582.838" cy="-519.099" r="59.745" gradientTransform="matrix(0.0991 8.856319e-004 -0.0011 0.0991 131.1134 135.9855)" gradientUnits="userSpaceOnUse" class="svga-on-canvas-eyesiris-gradient-left-2"><stop id="SvgjsStop5080" stop-opacity="1" stop-color="#ffffff" offset="0" ></stop><stop id="SvgjsStop5081" stop-opacity="0" stop-color="#ffffff" offset="1" ></stop></radialGradient><linearGradient id="SvgjsLinearGradient5085" x1="122.67" y1="88.268" x2="123.606" y2="87.152" gradientTransform="matrix(1 0 0 1 -52 0)" gradientUnits="userSpaceOnUse" class="svga-on-canvas-eyesiris-gradient-left-5"><stop id="SvgjsStop5086" stop-opacity="1" stop-color="#ffffff" offset="0" ></stop><stop id="SvgjsStop5087" stop-opacity="0" stop-color="#ffffff" offset="1" ></stop></linearGradient><linearGradient id="SvgjsLinearGradient5089" x1="127.212" y1="82.296" x2="126.463" y2="83.189" gradientTransform="matrix(1 0 0 1 -52 0)" gradientUnits="userSpaceOnUse" class="svga-on-canvas-eyesiris-gradient-left-6"><stop id="SvgjsStop5090" stop-opacity="1" stop-color="#ffffff" offset="0" ></stop><stop id="SvgjsStop5091" stop-opacity="0" stop-color="#ffffff" offset="1" ></stop></linearGradient><linearGradient id="SvgjsLinearGradient5093" x1="129.636" y1="79.822" x2="127.91" y2="81.879" gradientTransform="matrix(1 0 0 1 -52 0)" gradientUnits="userSpaceOnUse" class="svga-on-canvas-eyesiris-gradient-left-7"><stop id="SvgjsStop5094" stop-opacity="1" stop-color="#ffffff" offset="0" ></stop><stop id="SvgjsStop5095" stop-opacity="0" stop-color="#ffffff" offset="1" ></stop></linearGradient><radialGradient id="SvgjsRadialGradient5098" cx="-568.654" cy="-521.042" r="59.752" gradientTransform="matrix(0.096 -0.0248 0.0245 0.0961 193.2804 119.9894)" gradientUnits="userSpaceOnUse" class="svga-on-canvas-eyesiris-gradient-right-1"><stop id="SvgjsStop5099" stop-opacity="1" stop-color="#ffffff" offset="0" ></stop><stop id="SvgjsStop5100" stop-opacity="0" stop-color="#ffffff" offset="1" ></stop></radialGradient><radialGradient id="SvgjsRadialGradient5102" cx="-582.833" cy="-519.102" r="59.747" gradientTransform="matrix(0.0991 8.856319e-004 -0.0011 0.0991 183.1126 135.9856)" gradientUnits="userSpaceOnUse" class="svga-on-canvas-eyesiris-gradient-right-2"><stop id="SvgjsStop5103" stop-opacity="1" stop-color="#ffffff" offset="0" ></stop><stop id="SvgjsStop5104" stop-opacity="0" stop-color="#ffffff" offset="1" ></stop></radialGradient><linearGradient id="SvgjsLinearGradient5108" x1="122.67" y1="88.268" x2="123.606" y2="87.152" gradientUnits="userSpaceOnUse" class="svga-on-canvas-eyesiris-gradient-right-5"><stop id="SvgjsStop5109" stop-opacity="1" stop-color="#ffffff" offset="0" ></stop><stop id="SvgjsStop5110" stop-opacity="0" stop-color="#ffffff" offset="1" ></stop></linearGradient><linearGradient id="SvgjsLinearGradient5112" x1="127.212" y1="82.296" x2="126.463" y2="83.189" gradientUnits="userSpaceOnUse" class="svga-on-canvas-eyesiris-gradient-right-6"><stop id="SvgjsStop5113" stop-opacity="1" stop-color="#ffffff" offset="0" ></stop><stop id="SvgjsStop5114" stop-opacity="0" stop-color="#ffffff" offset="1" ></stop></linearGradient><linearGradient id="SvgjsLinearGradient5116" x1="129.636" y1="79.822" x2="127.91" y2="81.879" gradientUnits="userSpaceOnUse" class="svga-on-canvas-eyesiris-gradient-right-7"><stop id="SvgjsStop5117" stop-opacity="1" stop-color="#ffffff" offset="0" ></stop><stop id="SvgjsStop5118" stop-opacity="0" stop-color="#ffffff" offset="1" ></stop></linearGradient><linearGradient id="SvgjsLinearGradient5126" x1="100" y1="141" x2="100" y2="137" gradientUnits="userSpaceOnUse" class="svga-on-canvas-mouth-gradient-single-0"><stop id="SvgjsStop5127" stop-opacity="1" stop-color="#ecac92" offset="0.1" ></stop><stop id="SvgjsStop5128" stop-opacity="1" stop-color="#e59e82" offset="1" ></stop></linearGradient></defs><g id="svga-group-wrapper"><g id="svga-group-backs-single"><path id="SvgjsPath4995" d="M225,225H-25V-25h250V225z" fill="#c4c7f3" stroke-width="none" opacity="1"></path><path id="SvgjsPath4996" d="M-25,62.366V48.224L48.224-25h14.142L-25,62.366z M90.649-25H76.507L-25,76.507v14.142L90.649-25z M118.934-25h-14.142L-25,104.792v14.143L118.934-25z M147.219-25h-14.143L-25,133.075v14.143L147.219-25z M225-25h-7.071L-25,217.929V225h7.071L225-17.929V-25z M5.796-25H-8.345L-25-8.345V5.796L5.796-25z M34.081-25H19.939L-25,19.939v14.142L34.081-25z M175.503-25H161.36L-25,161.36v14.143L175.503-25z M-25-22.487L-22.487-25H-25V-22.487z M225,151.776v-14.143L137.635,225h14.142L225,151.776z M225,180.062v-14.143L165.919,225h14.143L225,180.062z M225,208.345v-14.143L194.203,225h14.143L225,208.345z M225,123.493v-14.143L109.351,225h14.142L225,123.493z M225,222.487L222.487,225H225V222.487z M225,38.64V24.497L24.497,225H38.64L225,38.64z M225,95.208V81.066L81.066,225h14.142L225,95.208z M225,10.355V-3.787L-3.787,225h14.142L225,10.355z M203.787-25h-14.143L-25,189.646v14.141L203.787-25z M225,66.924V52.782L52.782,225h14.142L225,66.924z" fill="#a1a5e4" stroke-width="none" opacity="1"></path></g><g id="svga-group-humanwrap-move" transform="matrix(1,0,0,1,0,0)"><g id="svga-group-humanwrap" transform="matrix(1,0,0,1,0,0)"><g id="svga-group-hair-back-move" transform="matrix(1,0,0,1,0,0)"><g id="svga-group-hair-back" transform="matrix(1,0,0,1,0,0)"><path id="SvgjsPath5004" d="M100.5,100.5h-1v-1h1V100.5z" fill="#2a232b" stroke-width="none" opacity="1"></path></g></g><g id="svga-group-humanbody-single"><path id="SvgjsPath4848" d="M195.417 199.778c-2.196-4.746-8.195-11.779-14.86-13.722 -8.239-2.403-26.837-5.308-33.733-6.923 -5.528-1.296-16.662-11.294-20.564-14.65 -0.7-0.6-1.273-1.839-1.287-2.76 -0.139-10.864 4.195-39.724 4.195-39.724H100 70.833c0 0 4.334 28.859 4.193 39.724 -0.011 0.921-0.587 2.16-1.285 2.76 -3.902 3.356-15.036 13.354-20.564 14.65 -6.897 1.615-25.495 4.619-33.733 7.022 -6.667 1.942-12.664 8.876-14.86 13.622 -3.708 8.008-4.584 22.5-4.584 35h100 100C200 222.278 199.123 207.786 195.417 199.778z" fill="#f4baa3" stroke-width="none" opacity="1" stroke="none"></path><path id="SvgjsPath4849" d="M159.156 184.058c24.342 3.542 34.586 8.708 37.794 50.721H200c0-12.5-0.877-26.992-4.583-35 -2.196-4.746-8.195-11.779-14.86-13.722 -8.239-2.403-26.837-5.308-33.733-6.923 -5.528-1.296-18.242-12.069-21.643-16.35 3.36 4.704 12.791 15.605 21.054 18.46C150.188 182.61 153.48 183.232 159.156 184.058zM53.766 181.244c8.263-2.854 17.693-13.756 21.054-18.46 -3.4 4.28-16.114 15.054-21.643 16.35 -6.896 1.615-25.494 4.619-33.733 7.022 -6.665 1.942-12.664 8.876-14.86 13.622 -3.706 8.008-4.583 22.5-4.583 35h3.05c3.188-41.744 13.475-47.183 37.794-50.721C46.52 183.232 49.813 182.61 53.766 181.244z" fill="#ffd5c4" stroke-width="none" opacity="1" stroke="none"></path><path id="SvgjsPath4850" d="M95.646 197.62c0 0-5.074-1.609-7.083-2.379 -10.449-4.009-44.395-6.607-44.395-6.607s35.754 1.419 43.644 2.779c-0.458-4.767-3.017-20.004-3.017-20.004s5.149 16.815 6.409 21.057C91.878 194.734 95.646 197.62 95.646 197.62zM106.445 196.278c-0.089 0.073-0.191 0.168-0.302 0.268C106.256 196.461 106.358 196.372 106.445 196.278zM95.646 197.62c0 0 2.893 2.992 4.347 3.03 1.91 0.051 4.828-2.899 6.151-4.104 -1.265 0.957-4.159 1.391-5.31 1.436C99.504 198.033 95.646 197.62 95.646 197.62zM116.664 190.101c-1.545 0.248-4.386 0.789-4.386 0.789l2.287-14.89c-0.646 3.071-4.474 16.211-8.12 20.278 1.91-1.616 6.158-2.391 8.324-2.704 10.236-1.484 10.232-1.483 41.062-4.94C155.831 188.634 126.76 188.479 116.664 190.101z" fill="#e59e82" stroke-width="none" opacity="1" stroke="none"></path><path id="SvgjsPath4851" d="M195.417 199.778c-2.196-4.746-8.195-11.779-14.86-13.722 -8.239-2.403-26.837-5.308-33.733-6.923 -5.528-1.296-16.662-11.294-20.564-14.65 -0.7-0.6-1.273-1.839-1.287-2.76 -0.139-10.864 4.195-39.724 4.195-39.724H100 70.833c0 0 4.334 28.859 4.193 39.724 -0.011 0.921-0.587 2.16-1.285 2.76 -3.902 3.356-15.036 13.354-20.564 14.65 -6.897 1.615-25.495 4.619-33.733 7.022 -6.667 1.942-12.664 8.876-14.86 13.622 -3.708 8.008-4.584 22.5-4.584 35h100 100C200 222.278 199.123 207.786 195.417 199.778z" fill="none" stroke="#c66c49" stroke-width="1.5" opacity="1"></path></g><g id="svga-group-chinshadow-single"><path id="SvgjsPath5000" d="M100.002 170.866c14.133 0 19-4.815 24.219-9.24 -0.068-6.741 1.494-19.936 2.735-29.278 -15.658-2.196-38.256-2.195-53.914 0 1.241 9.342 2.802 22.531 2.733 29.272C80.999 166.047 85.863 170.866 100.002 170.866z" fill="url(#SvgjsLinearGradient5001)" opacity="1"></path></g><g id="svga-group-clothes-single"><path id="SvgjsPath5141" d="M128.857 237.978H70.72v-56.183c22.25 4.699 36.88 4.337 58.138 0V237.978z" fill="#f3f1f3" stroke-width="none" opacity="1"></path><path id="SvgjsPath5142" d="M107.44 237.709c-2.775 0-10.727 0.208-16.512-0.23l-0.01-0.171c-0.818-18.658 1.129-30.719 4.537-39.288l0.048-0.123 -0.093-0.093c-0.905-0.904-2.425-1.935-4.034-3.025 -1.611-1.093-3.275-2.221-4.336-3.246 0.625-0.732 1.395-1.454 2.348-2.201 0.245-0.125 1.162-0.843 5.974-4.971 0.214-0.184 0.345-0.296 0.362-0.31 0.818-0.178 2.138-0.293 3.738-0.293 2.183 0 4.731 0.221 6.512 0.563 1.561 1.458 3.451 5.329 4.158 7.17 -0.976 2.291-2.128 3.129-3.717 4.284 -0.774 0.563-1.652 1.201-2.652 2.112l-0.083 0.075 0.021 0.111c4.026 20.31 4.027 25.054 4.027 29.642 0.001 2.021 0.001 6.609 0.339 9.985C107.917 237.707 107.704 237.709 107.44 237.709z" fill="#131111" stroke-width="none" opacity="1"></path><path id="SvgjsPath5143" d="M110.35 191.495c-0.754-1.995-2.71-5.93-4.28-7.359 -2.876-0.563-7.983-0.843-10.47-0.24 -0.108 0.088-6.248 5.383-6.31 5.26 -0.906 0.708-1.788 1.504-2.52 2.39 2.061 2.076 6.655 4.556 8.5 6.4 -3.65 9.18-5.33 21.59-4.55 39.38 0.01 0.11 0.01 0.23 0.02 0.34 6.756 0.52 16.55 0.331 17.55 0.223 -1.16-11.307 1.438-10.455-4.39-39.853C106.968 195.241 108.865 195.04 110.35 191.495zM105.1 210.535c-0.021-0.05-0.04-0.1-0.051-0.13 2 10.55 1.38 18.632 2.891 26.972 -4.736-0.318-12.014-0.052-16.771-0.052 0.369-7.198 1.188-31.684 4.74-39.74 0.17-0.046 0.339-0.084 0.509-0.125l-1.032 34.736 2.747-35.066c0.02-0.002 0.04-0.005 0.06-0.008l1.801 32.605 0.417-32.734c0.026 0.001 0.051-0.001 0.077 0l4.199 36.355 -2.3-36.137c0.314 0.063 0.629 0.141 0.942 0.233 0.03 0 0.07 0.01 0.1 0.03C103.533 198.476 104.365 205.876 105.1 210.535zM104.219 196.726c-2.774-1.251-6.363-1.026-9.129 0.24 -1.681-1.813-4.08-3.077-7.53-5.391 0.55-0.479 1.26-1.07 2.21-1.81 0.08 0 3.48-2.771 3.54-2.83 0.92-0.84 1.74-1.79 2.52-2.62 2.93-0.12 7.23 0.02 9.82 0.14 1.5 1.876 2.931 4.696 4.01 6.94C107.699 194.266 105.759 195.545 104.219 196.726z" fill="#000000" stroke-width="none" opacity="1"></path><path id="SvgjsPath5144" d="M78.196 213.077c-11.534-40.071-6.325-29.581-9.399-45.32 2.028-4.813 3.958-10.44 5.042-11.598l0.08-0.086c2.292 24.007 8.958 13.636 23.784 27.722C89.228 189.449 81.372 204.127 78.196 213.077zM131.193 167.758c-1.448-3.702-4.077-9.127-5.215-10.331 1.424 20.678-15.146 16.551-24.35 26.2 8.812 5.713 17.173 20.66 20.172 29.455C134.92 169.568 127.85 188.673 131.193 167.758z" fill="#f3f1f4" stroke-width="none" opacity="1"></path><path id="SvgjsPath5145" d="M125.801 156.967c0 5.137-0.42 9.162-1.262 10.339 -2.443 5.809-13.103 9.853-16.39 11.51 -2.495 1.227-4.942 2.809-6.83 4.85 3.813 2.476 5.705 3.383 12.93 14.44 4.246 7.109 6.539 12.448 7.561 15.64 13.378-44.331 6.222-24.978 9.59-46.01C129.814 163.65 126.801 157.885 125.801 156.967zM129.449 176.495c-1.957 18.078-3.491 14.485-7.74 34.181 -2.716-8.644-11.075-22.913-19.43-27.091 3.937-2.957 5.031-3.131 9.729-5.279 14.396-6.42 14.985-12.385 14.138-20.271 1.207 1.423 3.125 6.161 4.692 9.521C129.979 170.702 129.589 175.194 129.449 176.495zM79.199 171.896c-4.408-3.649-3.16-8.162-5.189-16.215 -0.902 1-3.146 6.632-5.42 12.055 0.557 2.796 0.681 7.389 0.76 8.84 0.559 12.202 1.75 12.765 8.83 37.16 3.031-8.905 11.558-24.37 20.24-30.009C91.489 177.401 82.765 174.999 79.199 171.896zM84.659 197.405c-2.221 3.666-4.517 7.48-6.37 13.28 -4.442-20.269-5.999-16.964-7.73-34.16 -0.32-2.971-0.617-6.027-1.4-8.96 1.638-3.588 3.981-10.281 4.731-10.995 1.366 7.078 0.066 13.462 5.669 16.995 2.621 1.996 11.104 5.32 17.52 10.36C93.188 186.235 91.094 187.596 84.659 197.405z" fill="#cfc8d7" stroke-width="none" opacity="1"></path><path id="SvgjsPath5146" d="M120.319 209.824l-1.209-2.654c0 0 9.148-28.175 10.743-36.225C130.765 179.299 120.319 209.824 120.319 209.824zM78.879 208.721l1.436-3.259c0 0-8.573-26.467-10.168-34.517C69.235 179.299 78.879 208.721 78.879 208.721z" fill="#e1e0e1" stroke-width="none" opacity="1"></path><path id="SvgjsPath5147" d="M124.787 195.605c7.065-20.834 2.756-22.551 6.305-29.469 0.134-0.261 1.396 1.046 1.533 1.64 1.306 5.658 53.349 17.338 54.994 18.598 1.456 1.058 5.65 3.137 5.65 3.137 4.937 9.07 7.762 10.698 9.15 34.984 0.13 3.083-0.061 11.801-0.061 14.141l-85.559-0.676C117.004 230.169 117.999 216.15 124.787 195.605zM75.213 195.605c-7.065-20.834-2.756-22.551-6.305-29.469 -0.134-0.261-1.396 1.046-1.533 1.64 -1.306 5.658-53.349 17.338-54.994 18.598 -1.456 1.058-5.65 3.137-5.65 3.137 -4.937 9.07-7.762 10.698-9.15 34.984 -0.13 3.083 0.061 11.801 0.061 14.141l85.559-0.676C82.996 230.169 82.001 216.15 75.213 195.605z" fill="#3f82a4" stroke-width="none" opacity="1"></path><path id="SvgjsPath5148" d="M130.307 190c-4.552 16.387-10.771 31.116-13.506 47.96 -0.89-0.007 1.491-22.695 7.986-42.354 7.065-20.834 2.756-22.551 6.305-29.469 0.077-0.15-0.619 1.976-0.223 2.432C130.723 176.296 132.625 182.272 130.307 190zM69.693 190c4.552 16.387 10.771 31.116 13.506 47.96 0.89-0.007-1.491-22.695-7.986-42.354 -7.065-20.834-2.756-22.551-6.305-29.469 -0.077-0.15 0.619 1.976 0.223 2.432C69.277 176.296 67.375 182.272 69.693 190z" fill="#2a7195" stroke-width="none" opacity="1"></path><path id="SvgjsPath5149" d="M152.436 186.031c0 0-2.284 2.561-8.636 6.923 5.313-5.885 7.761-8.249 7.761-8.249L152.436 186.031zM154.611 197.906l-1.528-1.367c-4.538 13.781-7.571 20.587-12.828 36.618C147.799 218.831 149.599 213.745 154.611 197.906zM48.439 184.705c0 0 2.447 2.364 7.761 8.249 -6.352-4.362-8.636-6.923-8.636-6.923L48.439 184.705zM59.745 233.157c-5.257-16.031-8.29-22.837-12.828-36.618l-1.528 1.367C50.401 213.745 52.201 218.831 59.745 233.157z" fill="#196185" stroke-width="none" opacity="1"></path><path id="SvgjsPath5150" d="M179.409 219.335c0-11.596 3.11-18.351 9.615-28.142 0.608 0.372 0.931 0.543 1.345 0.875C183.452 200.651 182.078 208.659 179.409 219.335zM141.312 230.703c6.113-16.703 8.06-23.228 12.107-34.388 -1.15-0.351-8.671-2.985-9.819-3.346 0.41 1 3.113 1.822 7.822 4.709C151.422 197.679 146.333 213.082 141.312 230.703zM149.533 184.577c0 0-3.352 4.14-6.664 8.328 3.388-2.67 5.748-5.644 8.691-8.2 -3.994-3.368-10.511-8.524-14.721-12.089C140.163 176.188 149.533 184.577 149.533 184.577zM202.073 238.634l0.286 0.002c0-2.34 0.19-11.058 0.061-14.141 -1.389-24.286-4.214-25.914-9.15-34.984 0 0-4.194-2.079-5.65-3.137 -1.334-1.021-38.794-9.922-52.49-15.88 16.011 10.971 46.282 15.027 55.24 21.574C194.702 195.235 200.535 222.337 202.073 238.634zM9.613 192.037c0.542-0.383 0.619-0.366 1.168-0.729 6.505 9.791 9.809 16.431 9.809 28.026C17.922 208.659 16.08 200.318 9.613 192.037zM48.578 197.679c4.709-2.887 7.412-3.709 7.822-4.709 -1.148 0.36-8.669 2.995-9.819 3.346 4.048 11.16 5.994 17.685 12.107 34.388C53.667 213.082 48.578 197.679 48.578 197.679zM63.16 172.616c-4.21 3.564-10.727 8.721-14.721 12.089 2.943 2.557 5.304 5.53 8.691 8.2 -3.313-4.188-6.664-8.328-6.664-8.328S59.837 176.188 63.16 172.616zM9.631 192.068c8.958-6.547 39.229-10.604 55.24-21.574 -13.696 5.958-51.156 14.858-52.49 15.88 -1.456 1.058-5.65 3.137-5.65 3.137 -4.937 9.07-7.762 10.698-9.15 34.984 -0.13 3.083 0.061 11.801 0.061 14.141l0.286-0.002C-0.535 222.337 5.298 195.235 9.631 192.068z" fill="#5794b3" stroke-width="none" opacity="1"></path><path id="SvgjsPath5151" d="M132.246 166.374c-0.049-0.293-0.443-0.634-0.738-0.657 -0.296-0.023-0.432 0.458-0.567 0.722 -3.549 6.918 0.414 8.333-6.651 29.167 -6.788 20.545-7.584 34.862-7.787 42.653l85.857 0.377c0-2.34 0.489-11.058 0.359-14.141 -1.389-24.286-4.313-26.113-9.25-35.184 0 0-4.394-2.179-5.85-3.236 -4.889-3.742-0.59 0.023-22.03-6 -17.576-5.135-18.525-6.577-24.899-8.35 -1.288-0.369-4.057-0.822-6.95-2.851C133.475 168.689 132.341 166.944 132.246 166.374zM116.974 237.31c3.729-23.564 6.085-29.73 11.296-47.274 3.522-11.104 1.576-17.408 3.254-22.54 0.088-0.268 0.467-0.282 0.571-0.017 2.434 6.214 9.238 7.656 18.834 17.047 -5.813 5.813-7.309 7.38-8.06 8.38 0.864 0.438 5.582 2.229 9.9 3.9 -0.245 0.767-13.415 38.02-13.57 38.52 10-21.578 11.292-28.211 14.22-39.01 -0.812-0.612-7.892-3.212-9.09-3.64 4.274-4.424 5.51-5.396 7.53-7.971 1.622 0-15.874-13.318-16.73-14.211 0.462 0.364 2.752 1.391 3.01 1.491 14.682 5.166 3.065 2.829 35.2 12.001 3.072 0.781 7.355 1.567 10.53 1.879 0.218 0.02 5.395 2.727 8.35 3.97 -7.189 7.475-11.797 17.133-12.81 29.5 3.219-12.666 4.951-19.29 13.14-28.819 7.62 15.422 6.755 13.195 9.23 47.71C181.167 237.413 149.559 237.227 116.974 237.31zM66.261 168.875c-2.894 2.028-5.662 2.481-6.95 2.851 -6.374 1.772-7.323 3.215-24.899 8.35 -21.44 6.023-17.142 2.258-22.03 6 -1.456 1.058-5.85 3.236-5.85 3.236 -4.937 9.07-7.861 10.897-9.25 35.184 -0.13 3.083 0.359 11.801 0.359 14.141l85.857-0.377c-0.203-7.791-0.999-22.108-7.787-42.653 -7.065-20.834-3.103-22.249-6.651-29.167 -0.136-0.264-0.271-0.745-0.567-0.722 -0.295 0.023-0.689 0.364-0.738 0.657C67.659 166.944 66.525 168.689 66.261 168.875zM-1.779 238.226c2.476-34.515 1.61-32.288 9.23-47.71 8.188 9.529 9.921 16.153 13.14 28.819 -1.013-12.367-5.62-22.025-12.81-29.5 2.955-1.243 8.132-3.95 8.35-3.97 3.175-0.312 7.458-1.098 10.53-1.879 32.135-9.172 20.519-6.835 35.2-12.001 0.258-0.101 2.548-1.127 3.01-1.491 -0.856 0.893-18.353 14.211-16.73 14.211 2.021 2.575 3.256 3.547 7.53 7.971 -1.198 0.428-8.278 3.027-9.09 3.64 2.928 10.799 4.22 17.432 14.22 39.01 -0.155-0.5-13.325-37.753-13.57-38.52 4.318-1.672 9.036-3.463 9.9-3.9 -0.751-1-2.247-2.567-8.06-8.38 9.596-9.391 16.4-10.833 18.834-17.047 0.104-0.266 0.483-0.251 0.571 0.017 1.678 5.132-0.269 11.436 3.254 22.54 5.211 17.544 7.567 23.71 11.296 47.274C50.441 237.227 18.833 237.413-1.779 238.226z" fill="#0a5276" stroke-width="none" opacity="1"></path></g><g id="svga-group-head" transform="matrix(1,0,0,1,0,0)"><g id="svga-group-ears-left-move" transform="matrix(1,0,0,1,0,0)"><g id="svga-group-ears-left" transform="matrix(1,0,0,1,0,0)"><path id="SvgjsPath5136" d="M45.443 82.722c-1.469-2.433-6.648-7.545-10.31-6.61 -2.979 0.762-6.032 3.243-6.032 7.473 -0.001 6.553 1.496 9.338 2.501 12.311 0.856 2.53 3.915 7.167 5.761 8.964 2.273 2.208 5.957 9.35 6.404 10.079 0.705 1.154 1.877 2.988 4.043 3.057 3.29 0.104 7.085-2.105 7.323-3.488C56.42 107.009 49.263 89.052 45.443 82.722z" fill="#f4baa3" stroke="#c66c49" stroke-width="1.5" opacity="1"></path><path id="SvgjsPath5137" d="M43.596 99.086c-0.142-0.558 0.007-1.495 0.152-2.4 0.131-0.826 0.255-1.605 0.18-2.157 -0.285-2.064-1.892-5.988-2.942-8.115 -1.208-2.446-4.117-5.528-6.568-6.322 -1.013-0.329-1.681 0.064-2.067 0.463 -0.284 0.293-0.347 0.637-0.254 0.678 0.093 0.041 0.304-0.244 0.61-0.513 0.25-0.22 0.617-0.408 1.122-0.369 -0.203 1.028-3.138 4.222-1.381 10.392 0.822 2.888 1.992 5.214 2.202 5.549 0.032 0.352 0.083 0.696 0.159 1.031 0.991 4.357 7.286 11.54 8.785 13.162 0.277 0.3 0.567 0.477 0.639 0.406 0.072-0.072-0.1-0.368-0.376-0.671 -1.48-1.611-7.734-8.777-8.69-12.981 -1.754-7.702 1.916-7.832 4.499-12.473 0.397 0.657 0.733 1.288 0.993 1.814 0.203 0.413 0.429 0.896 0.661 1.417 -0.458 0.729-5.059 6.055-3.889 10.317 0.433 1.572 3.779 3.598 5.073 4.153 0.712 0.306 0.979 0.763 1.289 1.291 0.359 0.613 0.767 2.796 1.95 3.298 0.241 0.103 0.458 0.146 0.651 0.146 0.334 0 0.587-0.128 0.774-0.28 0.019 0.267 0.018 0.612 0.008 0.93 -0.011 0.411 0.046 0.748 0.147 0.756s0.208-0.317 0.221-0.727c0.016-0.504 0.014-1.128-0.077-1.426 -0.265-0.88-1.076-1.871-1.934-2.921C44.688 102.503 43.815 99.947 43.596 99.086zM34.616 95.223c-2.322-6.84 0.993-12.744 1.514-13.684 0.908 0.787 2.662 1.841 3.314 2.87C36.33 89.804 34.811 86.051 34.616 95.223zM45.884 106.717c-1.072-0.455-1.431-2.555-1.778-3.147 -0.314-0.536-0.639-1.089-1.461-1.443 -0.179-0.077-0.376-0.194-0.578-0.328 -3.861-5.758 0.291-8.626 1.027-9.163 0.226 0.734 0.396 1.407 0.47 1.946 0.068 0.496-0.058 1.284-0.179 2.045 -0.15 0.944-0.306 1.92-0.145 2.553 0.24 0.941 1.14 3.529 2.01 4.594 0.772 0.945 1.564 1.919 1.835 2.713C46.97 106.645 46.604 107.022 45.884 106.717z" fill="#c66c49" stroke-width="none" opacity="1"></path></g></g><g id="svga-group-ears-right-move" transform="matrix(1,0,0,1,0,0)"><g id="svga-group-ears-right" transform="matrix(1,0,0,1,0,0)"><path id="SvgjsPath5138" d="M154.295 82.722c1.469-2.433 6.648-7.545 10.311-6.61 2.979 0.762 6.031 3.243 6.031 7.473 0.002 6.553-1.496 9.338-2.5 12.311 -0.857 2.53-3.916 7.167-5.762 8.964 -2.273 2.208-5.957 9.35-6.404 10.079 -0.705 1.154-1.877 2.988-4.043 3.057 -3.291 0.104-7.086-2.105-7.324-3.488C143.318 107.009 150.475 89.052 154.295 82.722z" fill="#f4baa3" stroke="#c66c49" stroke-width="1.5" opacity="1"></path><path id="SvgjsPath5139" d="M154.205 103.536c-0.857 1.05-1.668 2.041-1.934 2.921 -0.09 0.298-0.092 0.922-0.076 1.426 0.014 0.409 0.119 0.734 0.221 0.727s0.158-0.345 0.146-0.756c-0.01-0.317-0.01-0.663 0.01-0.93 0.186 0.152 0.439 0.28 0.773 0.28 0.193 0 0.41-0.043 0.65-0.146 1.184-0.502 1.592-2.686 1.951-3.298 0.311-0.528 0.576-0.985 1.289-1.291 1.293-0.555 4.639-2.581 5.072-4.153 1.17-4.262-3.432-9.588-3.889-10.317 0.232-0.522 0.457-1.004 0.66-1.417 0.26-0.526 0.596-1.157 0.994-1.814 2.582 4.641 6.252 4.771 4.498 12.473 -0.957 4.204-7.209 11.37-8.689 12.981 -0.275 0.303-0.447 0.599-0.377 0.671 0.072 0.07 0.361-0.106 0.639-0.406 1.5-1.622 7.795-8.805 8.785-13.162 0.076-0.334 0.129-0.679 0.16-1.031 0.209-0.334 1.379-2.661 2.201-5.549 1.758-6.17-1.178-9.364-1.381-10.392 0.504-0.039 0.871 0.149 1.123 0.369 0.305 0.269 0.518 0.553 0.609 0.513 0.094-0.041 0.029-0.385-0.254-0.678 -0.387-0.399-1.055-0.792-2.068-0.463 -2.451 0.794-5.359 3.876-6.568 6.322 -1.049 2.126-2.656 6.05-2.941 8.115 -0.074 0.552 0.049 1.331 0.18 2.157 0.145 0.906 0.293 1.843 0.152 2.4C155.924 99.947 155.051 102.503 154.205 103.536zM160.295 84.409c0.652-1.029 2.406-2.083 3.313-2.87 0.521 0.939 3.836 6.843 1.516 13.684C164.928 86.051 163.408 89.804 160.295 84.409zM152.652 106.486c0.271-0.794 1.064-1.768 1.836-2.713 0.869-1.065 1.77-3.653 2.01-4.594 0.16-0.632 0.006-1.608-0.145-2.553 -0.121-0.761-0.248-1.55-0.18-2.045 0.074-0.539 0.244-1.212 0.471-1.946 0.734 0.537 4.887 3.405 1.025 9.163 -0.201 0.134-0.398 0.251-0.578 0.328 -0.822 0.354-1.146 0.908-1.461 1.443 -0.346 0.592-0.705 2.692-1.777 3.147C153.135 107.022 152.768 106.645 152.652 106.486z" fill="#c66c49" stroke-width="none" opacity="1"></path></g></g><g id="svga-group-faceshape-wrap" transform="matrix(1,0,0,1,0,0)"><g id="svga-group-faceshape-single"><path id="SvgjsPath4997" d="M100.002 0.867C66.384 0.921 39.082 28.71 39.134 62.948c0.008 5.438 0.704 10.709 2.002 15.733h0.001c0.012 0.054 11.542 38.834 14.02 51.571 1.382 7.104 9.796 13.505 17.265 18.729 6.967 4.876 10.529 11.885 27.58 11.885s20.613-7.009 27.58-11.885c7.468-5.225 15.883-11.625 17.265-18.729 2.479-12.737 14.009-51.518 14.02-51.571h0.002c1.298-5.023 1.994-10.295 2.002-15.733C160.923 28.71 133.62 0.921 100.002 0.867z" fill="#f4baa3" stroke-width="none" opacity="1" stroke="none"></path><path id="SvgjsPath4998" d="M146.772 23.236c7.478 10.415 11.917 23.391 11.898 37.461 -0.009 5.438-0.679 10.709-1.93 15.733h-0.002c-0.011 0.054-11.124 38.833-13.512 51.572 -1.335 7.104-9.471 13.505-16.668 18.729 -6.718 4.875-10.121 11.886-26.557 11.886 -16.434 0-19.842-7.011-26.557-11.886 -7.197-5.225-15.335-11.625-16.665-18.729C54.39 115.264 43.277 76.484 43.266 76.43h0c-1.252-5.023-1.922-10.295-1.931-15.733C41.314 46.631 45.75 33.66 53.224 23.247 44.412 34.011 39.111 47.85 39.134 62.948c0.008 5.438 0.704 10.709 2.002 15.733h0.001c0.012 0.054 11.542 38.834 14.02 51.571 1.382 7.104 9.796 13.505 17.265 18.729 6.967 4.876 10.529 11.885 27.58 11.885s20.613-7.009 27.58-11.885c7.468-5.225 15.883-11.625 17.265-18.729 2.479-12.737 14.009-51.518 14.02-51.571h0.002c1.298-5.023 1.994-10.295 2.002-15.733C160.894 47.846 155.589 34.002 146.772 23.236z" fill="#ecac92" stroke-width="none" opacity="1" stroke="none"></path><path id="SvgjsPath4999" d="M100.002 0.867C66.384 0.921 39.082 28.71 39.134 62.948c0.008 5.438 0.704 10.709 2.002 15.733h0.001c0.012 0.054 11.542 38.834 14.02 51.571 1.382 7.104 9.796 13.505 17.265 18.729 6.967 4.876 10.529 11.885 27.58 11.885s20.613-7.009 27.58-11.885c7.468-5.225 15.883-11.625 17.265-18.729 2.479-12.737 14.009-51.518 14.02-51.571h0.002c1.298-5.023 1.994-10.295 2.002-15.733C160.923 28.71 133.62 0.921 100.002 0.867z" fill="none" stroke="#c66c49" stroke-width="1.5" opacity="1"></path></g></g><g id="svga-group-mouth-single-move" transform="matrix(1,0,0,1,0,0)"><g id="svga-group-mouth-single" transform="matrix(1,0,0,1,0,0)"><path id="SvgjsPath5125" d="M100.671 140.999c-5.683-0.008-7.963-3.983-7.963-3.983 6.845 2.441 15.408 0.264 15.408 0.264S106.377 141.008 100.671 140.999z" fill="url(#SvgjsLinearGradient5126)" opacity="1"></path><path id="SvgjsPath5129" d="M81.783 130.557c3.57-0.112 10.625-0.609 13.211-0.457 1.337 0.079 3.53 0.999 4.971 1.313 1.003 0.22 4.814-0.817 5.842-0.822 2.687-0.017 8.513 1.274 11.642 1.782 0.173 0.027 0 0 0 0s-7.699 6.575-17.56 6.143C88.728 138.025 81.783 130.557 81.783 130.557S81.606 130.562 81.783 130.557z" fill="#904539" stroke-width="none" opacity="1" stroke="none"></path><path id="SvgjsPath5130" d="M117.743 132.177c-0.085-0.126-0.641-0.245-0.846-0.221 -0.373 0.044-0.643 0.389-1.425 0.458 -0.904 0.084-5.695 0.815-7.002 0.782 -2.629-0.064-5.647 0.561-8.157 0.451 -2.513-0.11-6.464-1.159-9.077-1.344 -1.297-0.092-6.623-1.333-7.505-1.507 -0.759-0.15-0.82-0.506-1.125-0.607 -0.215-0.074-0.832-0.023-0.999 0.09 -0.145 0.1-0.1 0.557 0.001 0.683 0.248 0.305 1.167 0.435 1.838 0.568 0.931 0.184 6.336 1.438 7.67 1.532 2.586 0.186 6.589 1.303 9.123 1.414 2.532 0.112 5.608-0.587 8.21-0.521 1.338 0.034 6.197-0.699 7.156-0.784 0.694-0.064 1.556-0.179 1.876-0.402C117.634 132.664 117.826 132.309 117.743 132.177z" fill="#621609" stroke-width="none" opacity="1" stroke="none"></path><path id="SvgjsPath5131" d="M99.999 137.244c-4.411-0.192-11.369-1.912-14.032-4.152 1.629 0.195 5.155 0.481 6.772 0.693 1.997 0.265 4.761 1.003 6.795 1.192 2.196 0.202 5.2-0.237 7.342-0.422 1.79-0.153 4.563-0.661 6.35-0.72C110.221 135.628 104.257 137.43 99.999 137.244zM107.157 132.606c1.602-0.081 4.101-0.628 5.694-0.675 -1.796-0.491-4.499-0.493-6.406-0.697 -1.646-0.174-4.155 0.69-5.787 0.804 -1.838 0.132-4.022-1.204-5.733-1.333 -1.857-0.138-5.733 0.283-7.555 0.604 1.556 0.17 4.94 0.433 6.472 0.682 1.878 0.306 4.573 0.966 6.522 1.052C102.362 133.131 105.183 132.708 107.157 132.606z" fill="#984f44" stroke-width="none" opacity="1" stroke="none"></path><path id="SvgjsPath5132" d="M100.006 136.455c-2.626-0.118-6.989-1.062-8.873-2.365 0.482 0.022 1.884 0.146 2.348 0.189 0.146 0.015 0.293 0.031 0.438 0.05 0.757 0.101 1.489 0.304 2.271 0.515 0.759 0.207 2.481 0.47 3.329 0.557 0.167 0.019 0.333 0.027 0.501 0.034 1.043 0.048 2.983-0.061 3.943-0.21 0.609-0.095 1.182-0.192 1.77-0.247 0.32-0.032 0.669-0.047 1.061-0.049 0.336-0.003 0.689 0.006 1.036 0.017C106.063 135.841 102.713 136.574 100.006 136.455z" fill="#9f5a4f" stroke-width="none" opacity="1" stroke="none"></path><path id="SvgjsPath5133" d="M79.382 131.481c0 0-0.708-1.188-0.609-1.633 0.139-0.619 1.923-1.85 1.923-1.85s-1.08 1.415-1.247 1.863C79.288 130.294 79.382 131.481 79.382 131.481z" fill="#c66c49" stroke-width="none" opacity="1" stroke="none"></path></g></g><g id="svga-group-eyes-left-move" transform="matrix(1,0,0,1,0,0)"><g id="svga-group-eyes-left" transform="matrix(1,0,0,1,0,0)"><g id="svga-group-eyesback-left"><path id="SvgjsPath5015" d="M60.505 80.842c0.241 2.336 0.667 11.497 13.706 11.489 5.836-0.005 13.361-3.612 13.211-8.063 0 0-6.704-7.009-14-7.009S60.504 80.831 60.505 80.842z" fill="url(#SvgjsRadialGradient5016)" opacity="1"></path></g><g id="svga-group-eyesiriswrapper-left" transform="matrix(1,0,0,1,0.5,0.75)"><g id="svga-group-eyesiriscontrol-left" transform="matrix(1,0,0,1,0,0)"><g id="svga-group-eyesiris-left" transform="matrix(1,0,0,1,0,0)"><path id="SvgjsPath5073" d="M80 84c0 3.313-2.687 6-6 6 -3.313 0-6-2.687-6-6l0 0c0-3.314 2.687-6 6-6C77.313 77.999 80 80.686 80 84L80 84z" fill="#4d3623" stroke-width="none" opacity="1"></path><path id="SvgjsPath5074" d="M73.328 78.066c-0.023 0.003-0.047 0.006-0.071 0.009 0.029 0.135 0.057 0.271 0.085 0.406C73.336 78.344 73.333 78.204 73.328 78.066zM73.341 78.48c0.07 1.972 0.185 3.729 0.517 4.364C74.033 82.148 73.735 80.414 73.341 78.48zM73.859 82.845c-0.043 0.167-0.108 0.281-0.208 0.319 -0.1 0.038-0.226-0.006-0.368-0.103 0.041 0.167 0.037 0.297-0.036 0.378 -0.072 0.081-0.201 0.101-0.373 0.078 0.113 0.13 0.171 0.249 0.146 0.353 -0.027 0.104-0.134 0.182-0.293 0.242 0.159 0.063 0.266 0.141 0.291 0.245 0.025 0.104-0.033 0.223-0.145 0.352 0.17-0.021 0.301 0.001 0.371 0.082 0.071 0.081 0.075 0.212 0.035 0.379 0.141-0.097 0.265-0.139 0.365-0.1 0.101 0.038 0.166 0.152 0.206 0.32 0.081-0.152 0.171-0.249 0.28-0.26 0.104-0.014 0.216 0.059 0.329 0.188 0.001-0.172 0.037-0.299 0.127-0.36 0.088-0.061 0.219-0.049 0.379 0.013 -0.078-0.152-0.105-0.281-0.055-0.377 0.05-0.095 0.173-0.146 0.344-0.166 -0.141-0.099-0.227-0.2-0.225-0.308 0-0.108 0.084-0.209 0.227-0.306 -0.17-0.021-0.291-0.072-0.342-0.167 -0.049-0.095-0.022-0.225 0.058-0.377 -0.162 0.06-0.292 0.072-0.38 0.011 -0.089-0.061-0.125-0.188-0.125-0.36 -0.112 0.128-0.224 0.199-0.33 0.185C74.029 83.092 73.938 82.998 73.859 82.845zM74.466 82.92c0.479-0.535 1.021-2.209 1.57-4.104C75.182 80.593 74.467 82.202 74.466 82.92zM76.035 78.816c0.06-0.122 0.121-0.246 0.178-0.37 -0.021-0.007-0.042-0.017-0.063-0.026C76.112 78.553 76.074 78.686 76.035 78.816zM74.972 83.27c0.672-0.252 1.931-1.483 3.297-2.905C76.688 81.541 75.306 82.634 74.972 83.27zM78.269 80.365c0.1-0.075 0.203-0.15 0.305-0.225 -0.014-0.018-0.03-0.033-0.042-0.049C78.445 80.181 78.358 80.274 78.269 80.365zM75.254 83.814c0.713 0.088 2.4-0.417 4.272-1.041C77.578 83.081 75.848 83.406 75.254 83.814zM79.526 82.774c0.11-0.016 0.225-0.034 0.337-0.052 -0.004-0.019-0.009-0.038-0.014-0.057C79.742 82.701 79.632 82.738 79.526 82.774zM75.253 84.427c0.59 0.412 2.318 0.747 4.262 1.063C77.65 84.857 75.967 84.342 75.253 84.427zM79.516 85.49c0.095 0.033 0.191 0.067 0.285 0.098 0.005-0.017 0.009-0.033 0.012-0.05C79.716 85.523 79.615 85.507 79.516 85.49zM74.965 84.97c0.333 0.637 1.708 1.738 3.282 2.924C76.888 86.464 75.638 85.226 74.965 84.97zM78.248 87.892c0.059 0.062 0.12 0.126 0.179 0.189 0.01-0.012 0.019-0.021 0.03-0.032C78.387 87.997 78.315 87.944 78.248 87.892zM74.46 85.317c-0.003 0.719 0.703 2.331 1.547 4.113C75.468 87.533 74.937 85.855 74.46 85.317zM76.007 89.431c0.021 0.075 0.043 0.152 0.063 0.229 0.015-0.006 0.025-0.01 0.039-0.014C76.076 89.574 76.041 89.5 76.007 89.431zM73.851 85.389c-0.336 0.637-0.461 2.39-0.542 4.361C73.713 87.82 74.022 86.087 73.851 85.389zM73.309 89.75c-0.017 0.075-0.031 0.151-0.047 0.228 0.014 0.003 0.025 0.003 0.039 0.005C73.303 89.906 73.307 89.826 73.309 89.75zM73.28 85.169c-0.596 0.407-1.521 1.904-2.508 3.61C72.026 87.259 73.106 85.867 73.28 85.169zM70.772 88.779c-0.053 0.063-0.108 0.13-0.162 0.193 0.013 0.008 0.024 0.014 0.038 0.024C70.688 88.924 70.731 88.851 70.772 88.779zM72.875 84.71c-0.716 0.083-2.231 0.978-3.898 2.029C70.795 85.977 72.395 85.248 72.875 84.71zM68.976 86.741c-0.086 0.036-0.174 0.072-0.263 0.11 0.006 0.013 0.015 0.027 0.023 0.04C68.817 86.842 68.897 86.791 68.976 86.741zM72.728 84.113c-0.671-0.257-2.429-0.168-4.395-0.011C70.297 84.27 72.055 84.367 72.728 84.113zM68.333 84.102c-0.107-0.01-0.217-0.02-0.323-0.029 0 0.019-0.002 0.038 0 0.056C68.119 84.119 68.228 84.11 68.333 84.102zM72.875 83.519c-0.473-0.539-2.069-1.277-3.881-2.051C70.653 82.528 72.163 83.432 72.875 83.519zM68.994 81.468c-0.104-0.067-0.209-0.134-0.315-0.201 -0.009 0.019-0.019 0.038-0.029 0.055C68.766 81.371 68.882 81.419 68.994 81.468zM73.284 83.061c-0.169-0.698-1.241-2.094-2.485-3.623C71.775 81.15 72.692 82.651 73.284 83.061zM70.799 79.438c-0.067-0.115-0.132-0.232-0.199-0.349 -0.019 0.013-0.039 0.026-0.056 0.039C70.628 79.231 70.716 79.335 70.799 79.438z" fill="url(#SvgjsRadialGradient5075)" opacity="0.7"></path><path id="SvgjsPath5078" d="M74.886 78.086c-0.024-0.003-0.047-0.007-0.07-0.01 -0.007 0.138-0.016 0.277-0.024 0.414C74.822 78.356 74.855 78.22 74.886 78.086zM74.791 78.489c-0.442 1.922-0.787 3.649-0.629 4.35C74.511 82.211 74.671 80.459 74.791 78.489zM74.161 82.839c-0.084 0.15-0.176 0.243-0.283 0.254 -0.106 0.01-0.216-0.064-0.327-0.195 -0.004 0.171-0.042 0.297-0.133 0.356 -0.09 0.059-0.221 0.045-0.38-0.021 0.076 0.155 0.101 0.285 0.049 0.378 -0.053 0.094-0.176 0.142-0.345 0.158 0.137 0.101 0.22 0.204 0.217 0.312 -0.002 0.107-0.089 0.207-0.231 0.302 0.169 0.024 0.29 0.079 0.337 0.174 0.048 0.096 0.018 0.225-0.064 0.375 0.161-0.057 0.292-0.065 0.379-0.002 0.087 0.063 0.12 0.19 0.116 0.363 0.117-0.125 0.229-0.196 0.337-0.179 0.105 0.014 0.194 0.113 0.27 0.268 0.045-0.167 0.113-0.279 0.216-0.315 0.101-0.036 0.225 0.01 0.363 0.111 -0.036-0.167-0.029-0.299 0.044-0.378 0.073-0.079 0.205-0.096 0.376-0.072 -0.111-0.132-0.168-0.251-0.138-0.355 0.028-0.104 0.136-0.18 0.299-0.237 -0.16-0.064-0.263-0.145-0.288-0.25 -0.023-0.105 0.037-0.223 0.154-0.349 -0.172 0.016-0.301-0.006-0.37-0.088 -0.07-0.082-0.072-0.214-0.028-0.379 -0.142 0.094-0.268 0.134-0.367 0.093C74.261 83.122 74.199 83.007 74.161 82.839zM74.729 83.07c0.601-0.394 1.557-1.871 2.578-3.558C76.022 81.007 74.916 82.375 74.729 83.07zM77.307 79.511c0.089-0.102 0.18-0.206 0.268-0.311 -0.019-0.013-0.036-0.028-0.055-0.042C77.449 79.277 77.378 79.396 77.307 79.511zM75.127 83.538c0.715-0.07 2.25-0.934 3.937-1.953C77.231 82.312 75.614 83.01 75.127 83.538zM79.063 81.584c0.117-0.046 0.235-0.092 0.354-0.138 -0.01-0.021-0.021-0.04-0.028-0.059C79.281 81.453 79.173 81.52 79.063 81.584zM75.259 84.137c0.666 0.27 2.426 0.218 4.395 0.101C77.693 84.03 75.938 83.896 75.259 84.137zM79.654 84.237c0.112 0.013 0.226 0.025 0.339 0.037 0-0.02 0.001-0.039 0.002-0.058C79.881 84.223 79.766 84.23 79.654 84.237zM75.1 84.729c0.462 0.551 2.046 1.321 3.842 2.129C77.303 85.763 75.811 84.831 75.1 84.729zM78.941 86.858c0.083 0.057 0.167 0.114 0.25 0.168 0.009-0.015 0.017-0.03 0.025-0.045C79.126 86.942 79.032 86.9 78.941 86.858zM74.68 85.179c0.156 0.701 1.2 2.12 2.414 3.674C76.151 87.119 75.264 85.599 74.68 85.179zM77.094 88.85c0.042 0.075 0.083 0.153 0.125 0.229 0.012-0.009 0.024-0.016 0.037-0.024C77.202 88.987 77.147 88.917 77.094 88.85zM74.103 85.383c-0.188 0.693 0.076 2.433 0.43 4.373C74.502 87.784 74.424 86.026 74.103 85.383zM74.532 89.756c0.001 0.078 0.003 0.158 0.003 0.238 0.014-0.002 0.027-0.004 0.041-0.004C74.562 89.913 74.547 89.833 74.532 89.756zM73.496 85.294c-0.49 0.528-1.064 2.189-1.652 4.072C72.733 87.607 73.481 86.013 73.496 85.294zM71.843 89.366c-0.035 0.068-0.07 0.138-0.104 0.208 0.012 0.006 0.023 0.009 0.036 0.015C71.797 89.516 71.821 89.439 71.843 89.366zM73 84.934c-0.68 0.239-1.962 1.446-3.357 2.838C71.25 86.628 72.652 85.563 73 84.934zM69.644 87.772c-0.067 0.047-0.137 0.098-0.205 0.145 0.01 0.011 0.02 0.02 0.029 0.032C69.525 87.89 69.585 87.832 69.644 87.772zM72.728 84.385c-0.713-0.104-2.407 0.368-4.291 0.952C70.392 85.071 72.125 84.781 72.728 84.385zM68.437 85.339c-0.092 0.013-0.187 0.024-0.283 0.039 0.003 0.015 0.008 0.03 0.013 0.044C68.258 85.396 68.348 85.366 68.437 85.339zM72.741 83.772c-0.582-0.423-2.303-0.792-4.242-1.149C70.353 83.294 72.025 83.843 72.741 83.772zM68.499 82.623c-0.101-0.037-0.205-0.075-0.305-0.112 -0.005 0.019-0.011 0.037-0.015 0.054C68.288 82.584 68.395 82.604 68.499 82.623zM73.038 83.235c-0.318-0.643-1.668-1.769-3.219-2.986C71.147 81.704 72.372 82.968 73.038 83.235zM69.818 80.25c-0.083-0.091-0.167-0.183-0.251-0.275 -0.014 0.016-0.029 0.031-0.042 0.046C69.624 80.097 69.723 80.173 69.818 80.25zM73.551 82.899c0.017-0.718-0.656-2.344-1.464-4.142C72.587 80.663 73.085 82.35 73.551 82.899zM72.087 78.757c-0.034-0.128-0.067-0.259-0.101-0.389 -0.021 0.007-0.043 0.015-0.063 0.023C71.977 78.513 72.033 78.636 72.087 78.757z" fill="url(#SvgjsRadialGradient5079)" opacity="0.4"></path><path id="SvgjsPath5082" d="M76.354 84c0 1.3-1.053 2.353-2.353 2.353 -1.299 0-2.354-1.053-2.354-2.353 0-1.299 1.055-2.354 2.354-2.354C75.301 81.646 76.354 82.7 76.354 84z" fill="#4d3623" stroke-width="none" opacity="1"></path><path id="SvgjsPath5083" d="M76.354 84c0 1.3-1.053 2.353-2.353 2.353 -1.299 0-2.354-1.053-2.354-2.353 0-1.299 1.055-2.354 2.354-2.354C75.301 81.646 76.354 82.7 76.354 84z" fill="#000000" stroke-width="none" opacity="0.9"></path><path id="SvgjsPath5084" d="M70.717 86.748c0.449-0.302 1.059-0.18 1.36 0.268 0.301 0.449 0.182 1.059-0.268 1.36 -0.45 0.303-1.059 0.183-1.36-0.267C70.148 87.66 70.268 87.049 70.717 86.748L70.717 86.748z" fill="url(#SvgjsLinearGradient5085)" opacity="0.5"></path><path id="SvgjsPath5088" d="M75.86 83.672c-0.251 0.374-0.969 0.331-1.606-0.096 -0.638-0.427-0.95-1.078-0.7-1.451l0-0.001c0.25-0.374 0.969-0.331 1.605 0.097C75.798 82.647 76.11 83.297 75.86 83.672 75.86 83.672 75.86 83.672 75.86 83.672z" fill="url(#SvgjsLinearGradient5089)" opacity="0.5"></path><path id="SvgjsPath5092" d="M78.716 82.673c-0.568 0.873-2.036 0.925-3.275 0.117 -1.24-0.808-1.784-2.17-1.215-3.043 0.568-0.872 2.036-0.924 3.275-0.117C78.74 80.439 79.284 81.802 78.716 82.673L78.716 82.673z" fill="url(#SvgjsLinearGradient5093)" opacity="0.75"></path></g></g></g><g id="svga-group-eyesfront-left"><path id="SvgjsPath5040" d="M55.199 83.999c0 13.807 8.507 25 19 25s19-11.193 19-25 -8.507-25-19-25S55.199 70.192 55.199 83.999zM60.505 80.842c-0.001-0.011 5.621-3.583 12.917-3.583s14 7.009 14 7.009c0.15 4.45-7.375 8.058-13.211 8.063C61.172 92.339 60.746 83.179 60.505 80.842z" fill="#f4baa3" stroke-width="none" opacity="1" stroke="none"></path><path id="SvgjsPath5041" d="M58.098 84.073c-0.078 7.733 8.894 13.964 18.553 13.926 9.657-0.044 17.473-6.342 17.446-14.077C94.072 76.191 86.23 69.959 76.57 70 66.909 70.043 58.202 73.495 58.098 84.073zM60.505 80.842c-0.001-0.011 5.621-3.583 12.917-3.583s14 7.009 14 7.009c0.15 4.45-7.375 8.058-13.211 8.063C61.172 92.339 60.746 83.179 60.505 80.842z" fill="url(#SvgjsRadialGradient5042)" opacity="1"></path><path id="SvgjsPath5046" d="M60.505 80.842c0.241 2.336 0.667 11.497 13.706 11.489 5.836-0.005 13.361-3.612 13.211-8.063 0 0-6.704-7.009-14-7.009S60.504 80.831 60.505 80.842z" fill="url(#SvgjsRadialGradient5047)" opacity="1"></path><path id="SvgjsPath5050" d="M88.143 81.99c-0.995-1.708-5.02-5.623-10.804-6.99C84.38 76.245 86.134 78.672 88.143 81.99z" fill="#c66c49" stroke-width="none" opacity="1" stroke="none"></path><path id="SvgjsPath5051" d="M60.707 81.467c0.099 1.422 1.79 5.64 2.534 6.819 -2.275-1.08-2.705-4.186-7.099-8.199 14.067-7.027 24.748-5.142 32 5.061C78.764 76.573 71.396 75.496 60.707 81.467zM83.776 89.792c0 0-6.42 2.373-9.923 2.41 -3.503 0.039-8.483-1.906-8.483-1.906s4.851 2.565 8.483 2.57C77.487 92.872 83.776 89.792 83.776 89.792z" fill="#0f190c" stroke-width="none" opacity="1" stroke="none"></path></g></g></g><g id="svga-group-eyes-right-move" transform="matrix(1,0,0,1,0,0)"><g id="svga-group-eyes-right" transform="matrix(1,0,0,1,0,0)"><g id="svga-group-eyesback-right"><path id="SvgjsPath5023" d="M139.097 80.842c-0.241 2.336-0.667 11.497-13.706 11.489 -5.836-0.005-13.361-3.612-13.211-8.063 0 0 6.704-7.009 14-7.009S139.098 80.831 139.097 80.842z" fill="url(#SvgjsRadialGradient5024)" opacity="1"></path></g><g id="svga-group-eyesiriswrapper-right" transform="matrix(1,0,0,1,-0.5,0.75)"><g id="svga-group-eyesiriscontrol-right" transform="matrix(1,0,0,1,0,0)"><g id="svga-group-eyesiris-right" transform="matrix(1,0,0,1,0,0)"><path id="SvgjsPath5096" d="M132 84c0 3.313-2.687 6-5.999 6 -3.313 0-6.001-2.687-6.001-6l0 0c0-3.314 2.688-6 6.001-6C129.313 77.999 132 80.686 132 84L132 84z" fill="#4d3623" stroke-width="none" opacity="1"></path><path id="SvgjsPath5097" d="M125.328 78.066c-0.023 0.003-0.047 0.006-0.071 0.009 0.029 0.135 0.058 0.271 0.085 0.406C125.336 78.344 125.333 78.204 125.328 78.066zM125.341 78.48c0.069 1.972 0.185 3.729 0.518 4.364C126.033 82.148 125.735 80.414 125.341 78.48zM125.858 82.845c-0.042 0.167-0.108 0.281-0.207 0.319 -0.101 0.038-0.226-0.006-0.367-0.103 0.04 0.167 0.036 0.297-0.036 0.378 -0.072 0.081-0.201 0.101-0.372 0.078 0.112 0.13 0.171 0.249 0.146 0.353 -0.028 0.104-0.134 0.182-0.293 0.242 0.158 0.063 0.265 0.141 0.29 0.245 0.025 0.104-0.032 0.223-0.145 0.352 0.17-0.021 0.3 0.001 0.37 0.082 0.071 0.081 0.075 0.212 0.035 0.379 0.141-0.097 0.266-0.139 0.365-0.1 0.102 0.038 0.166 0.152 0.206 0.32 0.08-0.152 0.172-0.249 0.279-0.26 0.105-0.014 0.217 0.059 0.329 0.188 0.002-0.172 0.037-0.299 0.128-0.36 0.087-0.061 0.219-0.049 0.379 0.013 -0.078-0.152-0.104-0.281-0.056-0.377 0.051-0.095 0.174-0.146 0.345-0.166 -0.141-0.099-0.228-0.2-0.225-0.308 -0.001-0.108 0.084-0.209 0.227-0.306 -0.171-0.021-0.291-0.072-0.342-0.167 -0.05-0.095-0.022-0.225 0.057-0.377 -0.161 0.06-0.291 0.072-0.38 0.011s-0.124-0.188-0.125-0.36c-0.111 0.128-0.224 0.199-0.33 0.185C126.029 83.092 125.938 82.998 125.858 82.845zM126.466 82.92c0.479-0.535 1.021-2.209 1.569-4.104C127.182 80.593 126.468 82.202 126.466 82.92zM128.035 78.816c0.06-0.122 0.121-0.246 0.179-0.37 -0.021-0.007-0.042-0.017-0.063-0.026C128.112 78.553 128.074 78.686 128.035 78.816zM126.972 83.27c0.673-0.252 1.932-1.483 3.298-2.905C128.688 81.541 127.307 82.634 126.972 83.27zM130.27 80.365c0.1-0.075 0.202-0.15 0.305-0.225 -0.015-0.018-0.03-0.033-0.042-0.049C130.445 80.181 130.358 80.274 130.27 80.365zM127.255 83.814c0.713 0.088 2.399-0.417 4.271-1.041C129.578 83.081 127.848 83.406 127.255 83.814zM131.526 82.774c0.11-0.016 0.225-0.034 0.337-0.052 -0.005-0.019-0.009-0.038-0.014-0.057C131.742 82.701 131.632 82.738 131.526 82.774zM127.253 84.427c0.591 0.412 2.318 0.747 4.263 1.063C129.65 84.857 127.967 84.342 127.253 84.427zM131.516 85.49c0.095 0.033 0.19 0.067 0.285 0.098 0.005-0.017 0.009-0.033 0.013-0.05C131.716 85.523 131.614 85.507 131.516 85.49zM126.965 84.97c0.332 0.637 1.708 1.738 3.282 2.924C128.889 86.464 127.638 85.226 126.965 84.97zM130.248 87.892c0.059 0.062 0.119 0.126 0.178 0.189 0.01-0.012 0.02-0.021 0.031-0.032C130.387 87.997 130.315 87.944 130.248 87.892zM126.461 85.317c-0.003 0.719 0.702 2.331 1.547 4.113C127.468 87.533 126.937 85.855 126.461 85.317zM128.008 89.431c0.021 0.075 0.043 0.152 0.063 0.229 0.015-0.006 0.026-0.01 0.039-0.014C128.076 89.574 128.041 89.5 128.008 89.431zM125.851 85.389c-0.336 0.637-0.461 2.39-0.542 4.361C125.713 87.82 126.022 86.087 125.851 85.389zM125.309 89.75c-0.017 0.075-0.031 0.151-0.047 0.228 0.014 0.003 0.024 0.003 0.039 0.005C125.303 89.906 125.307 89.826 125.309 89.75zM125.279 85.169c-0.596 0.407-1.521 1.904-2.508 3.61C124.026 87.259 125.105 85.867 125.279 85.169zM122.771 88.779c-0.052 0.063-0.107 0.13-0.161 0.193 0.013 0.008 0.024 0.014 0.037 0.024C122.688 88.924 122.731 88.851 122.771 88.779zM124.874 84.71c-0.716 0.083-2.23 0.978-3.897 2.029C122.795 85.977 124.395 85.248 124.874 84.71zM120.977 86.741c-0.087 0.036-0.175 0.072-0.263 0.11 0.006 0.013 0.014 0.027 0.023 0.04C120.817 86.842 120.897 86.791 120.977 86.741zM124.729 84.113c-0.672-0.257-2.43-0.168-4.396-0.011C122.298 84.27 124.055 84.367 124.729 84.113zM120.333 84.102c-0.106-0.01-0.217-0.02-0.322-0.029 -0.001 0.019-0.003 0.038-0.001 0.056C120.119 84.119 120.228 84.11 120.333 84.102zM124.876 83.519c-0.474-0.539-2.069-1.277-3.882-2.051C122.653 82.528 124.163 83.432 124.876 83.519zM120.994 81.468c-0.104-0.067-0.21-0.134-0.315-0.201 -0.009 0.019-0.019 0.038-0.028 0.055C120.766 81.371 120.883 81.419 120.994 81.468zM125.284 83.061c-0.169-0.698-1.241-2.094-2.485-3.623C123.775 81.15 124.692 82.651 125.284 83.061zM122.799 79.438c-0.067-0.115-0.133-0.232-0.198-0.349 -0.019 0.013-0.039 0.026-0.057 0.039C122.629 79.231 122.716 79.335 122.799 79.438z" fill="url(#SvgjsRadialGradient5098)" opacity="0.7"></path><path id="SvgjsPath5101" d="M126.886 78.086c-0.024-0.003-0.047-0.007-0.07-0.01 -0.008 0.138-0.016 0.277-0.024 0.414C126.821 78.356 126.854 78.22 126.886 78.086zM126.791 78.489c-0.443 1.922-0.787 3.649-0.63 4.35C126.511 82.211 126.671 80.459 126.791 78.489zM126.161 82.839c-0.084 0.15-0.177 0.243-0.283 0.254 -0.106 0.01-0.216-0.064-0.327-0.195 -0.004 0.171-0.042 0.297-0.133 0.356 -0.09 0.059-0.221 0.045-0.38-0.021 0.075 0.155 0.101 0.285 0.049 0.378 -0.054 0.094-0.176 0.142-0.346 0.158 0.138 0.101 0.22 0.204 0.217 0.312 -0.002 0.107-0.089 0.207-0.23 0.302 0.17 0.024 0.289 0.079 0.337 0.174 0.048 0.096 0.018 0.225-0.064 0.375 0.162-0.057 0.293-0.065 0.38-0.002 0.087 0.063 0.12 0.19 0.115 0.363 0.117-0.125 0.229-0.196 0.337-0.179 0.105 0.014 0.194 0.113 0.27 0.268 0.046-0.167 0.113-0.279 0.216-0.315 0.101-0.036 0.226 0.01 0.363 0.111 -0.035-0.167-0.028-0.299 0.045-0.378 0.072-0.079 0.204-0.096 0.375-0.072 -0.11-0.132-0.168-0.251-0.138-0.355 0.027-0.104 0.136-0.18 0.299-0.237 -0.159-0.064-0.263-0.145-0.288-0.25 -0.022-0.105 0.038-0.223 0.154-0.349 -0.172 0.016-0.302-0.006-0.37-0.088 -0.07-0.082-0.072-0.214-0.027-0.379 -0.143 0.094-0.269 0.134-0.368 0.093C126.262 83.122 126.198 83.007 126.161 82.839zM126.729 83.07c0.601-0.394 1.557-1.871 2.578-3.558C128.022 81.007 126.916 82.375 126.729 83.07zM129.307 79.511c0.089-0.102 0.18-0.206 0.269-0.311 -0.02-0.013-0.037-0.028-0.056-0.042C129.449 79.277 129.378 79.396 129.307 79.511zM127.127 83.538c0.715-0.07 2.249-0.934 3.937-1.953C129.231 82.312 127.614 83.01 127.127 83.538zM131.063 81.584c0.116-0.046 0.234-0.092 0.354-0.138 -0.01-0.021-0.021-0.04-0.028-0.059C131.281 81.453 131.173 81.52 131.063 81.584zM127.259 84.137c0.666 0.27 2.426 0.218 4.396 0.101C129.692 84.03 127.938 83.896 127.259 84.137zM131.654 84.237c0.111 0.013 0.226 0.025 0.339 0.037 0.001-0.02 0.001-0.039 0.002-0.058C131.882 84.223 131.766 84.23 131.654 84.237zM127.1 84.729c0.463 0.551 2.046 1.321 3.842 2.129C129.303 85.763 127.811 84.831 127.1 84.729zM130.941 86.858c0.082 0.057 0.167 0.114 0.25 0.168 0.009-0.015 0.018-0.03 0.024-0.045C131.126 86.942 131.032 86.9 130.941 86.858zM126.681 85.179c0.155 0.701 1.199 2.12 2.413 3.674C128.151 87.119 127.265 85.599 126.681 85.179zM129.095 88.85c0.041 0.075 0.082 0.153 0.124 0.229 0.012-0.009 0.023-0.016 0.037-0.024C129.202 88.987 129.146 88.917 129.095 88.85zM126.103 85.383c-0.188 0.693 0.076 2.433 0.43 4.373C126.502 87.784 126.424 86.026 126.103 85.383zM126.532 89.756c0.001 0.078 0.003 0.158 0.003 0.238 0.015-0.002 0.026-0.004 0.04-0.004C126.562 89.913 126.547 89.833 126.532 89.756zM125.495 85.294c-0.489 0.528-1.064 2.189-1.652 4.072C124.733 87.607 125.48 86.013 125.495 85.294zM123.843 89.366c-0.035 0.068-0.069 0.138-0.104 0.208 0.012 0.006 0.022 0.009 0.035 0.015C123.797 89.516 123.821 89.439 123.843 89.366zM125 84.934c-0.68 0.239-1.961 1.446-3.356 2.838C123.25 86.628 124.652 85.563 125 84.934zM121.644 87.772c-0.067 0.047-0.138 0.098-0.205 0.145 0.01 0.011 0.02 0.02 0.029 0.032C121.525 87.89 121.586 87.832 121.644 87.772zM124.728 84.385c-0.713-0.104-2.406 0.368-4.29 0.952C122.392 85.071 124.126 84.781 124.728 84.385zM120.438 85.339c-0.093 0.013-0.188 0.024-0.283 0.039 0.004 0.015 0.008 0.03 0.013 0.044C120.258 85.396 120.348 85.366 120.438 85.339zM124.741 83.772c-0.582-0.423-2.303-0.792-4.242-1.149C122.353 83.294 124.025 83.843 124.741 83.772zM120.499 82.623c-0.101-0.037-0.205-0.075-0.305-0.112 -0.006 0.019-0.011 0.037-0.015 0.054C120.287 82.584 120.395 82.604 120.499 82.623zM125.038 83.235c-0.318-0.643-1.669-1.769-3.22-2.986C123.147 81.704 124.372 82.968 125.038 83.235zM121.818 80.25c-0.083-0.091-0.167-0.183-0.251-0.275 -0.015 0.016-0.028 0.031-0.043 0.046C121.623 80.097 121.724 80.173 121.818 80.25zM125.551 82.899c0.017-0.718-0.656-2.344-1.464-4.142C124.588 80.663 125.085 82.35 125.551 82.899zM124.087 78.757c-0.034-0.128-0.067-0.259-0.102-0.389 -0.021 0.007-0.043 0.015-0.063 0.023C123.977 78.513 124.033 78.636 124.087 78.757z" fill="url(#SvgjsRadialGradient5102)" opacity="0.4"></path><path id="SvgjsPath5105" d="M128.354 84c0 1.3-1.054 2.353-2.353 2.353 -1.3 0-2.354-1.053-2.354-2.353 0-1.299 1.055-2.354 2.354-2.354C127.302 81.646 128.354 82.7 128.354 84z" fill="#4d3623" stroke-width="none" opacity="1"></path><path id="SvgjsPath5106" d="M128.354 84c0 1.3-1.054 2.353-2.353 2.353 -1.3 0-2.354-1.053-2.354-2.353 0-1.299 1.055-2.354 2.354-2.354C127.302 81.646 128.354 82.7 128.354 84z" fill="#000000" stroke-width="none" opacity="0.9"></path><path id="SvgjsPath5107" d="M122.718 86.748c0.448-0.302 1.059-0.18 1.359 0.268 0.302 0.449 0.183 1.059-0.268 1.36 -0.45 0.303-1.059 0.183-1.359-0.267C122.148 87.66 122.268 87.049 122.718 86.748L122.718 86.748z" fill="url(#SvgjsLinearGradient5108)" opacity="0.5"></path><path id="SvgjsPath5111" d="M127.859 83.672c-0.251 0.374-0.969 0.331-1.605-0.096 -0.638-0.427-0.95-1.078-0.7-1.451l0.001-0.001c0.25-0.374 0.969-0.331 1.605 0.097C127.798 82.647 128.11 83.297 127.859 83.672 127.859 83.672 127.859 83.672 127.859 83.672z" fill="url(#SvgjsLinearGradient5112)" opacity="0.5"></path><path id="SvgjsPath5115" d="M130.717 82.673c-0.569 0.873-2.036 0.925-3.276 0.117 -1.239-0.808-1.784-2.17-1.215-3.043 0.568-0.872 2.035-0.924 3.275-0.117C130.74 80.439 131.284 81.802 130.717 82.673L130.717 82.673z" fill="url(#SvgjsLinearGradient5116)" opacity="0.75"></path></g></g></g><g id="svga-group-eyesfront-right"><path id="SvgjsPath5061" d="M125.402 58.999c-10.493 0-19 11.193-19 25s8.507 25 19 25 19-11.193 19-25S135.896 58.999 125.402 58.999zM125.391 92.331c-5.836-0.005-13.361-3.612-13.211-8.063 0 0 6.704-7.009 14-7.009s12.918 3.572 12.917 3.583C138.855 83.179 138.43 92.339 125.391 92.331z" fill="#f4baa3" stroke-width="none" opacity="1" stroke="none"></path><path id="SvgjsPath5062" d="M123.031 70c-9.66-0.041-17.502 6.192-17.526 13.922 -0.026 7.735 7.789 14.033 17.446 14.077 9.659 0.038 18.631-6.193 18.553-13.926C141.399 73.495 132.692 70.043 123.031 70zM125.391 92.331c-5.836-0.005-13.361-3.612-13.211-8.063 0 0 6.704-7.009 14-7.009s12.918 3.572 12.917 3.583C138.855 83.179 138.43 92.339 125.391 92.331z" fill="url(#SvgjsRadialGradient5063)" opacity="1"></path><path id="SvgjsPath5067" d="M139.097 80.842c-0.241 2.336-0.667 11.497-13.706 11.489 -5.836-0.005-13.361-3.612-13.211-8.063 0 0 6.704-7.009 14-7.009S139.098 80.831 139.097 80.842z" fill="url(#SvgjsRadialGradient5068)" opacity="1"></path><path id="SvgjsPath5071" d="M111.459 81.99c0.995-1.708 5.02-5.623 10.804-6.99C115.222 76.245 113.468 78.672 111.459 81.99z" fill="#c66c49" stroke-width="none" opacity="1" stroke="none"></path><path id="SvgjsPath5072" d="M111.459 85.148c7.252-10.203 17.933-12.088 32-5.061 -4.394 4.013-4.823 7.119-7.099 8.199 0.744-1.179 2.436-5.397 2.534-6.819C128.205 75.496 120.838 76.573 111.459 85.148zM125.748 92.866c3.633-0.005 8.483-2.57 8.483-2.57s-4.98 1.944-8.483 1.906c-3.503-0.038-9.923-2.41-9.923-2.41S122.114 92.872 125.748 92.866z" fill="#0f190c" stroke-width="none" opacity="1" stroke="none"></path></g></g></g><g id="svga-group-facehighlight-single"><path id="SvgjsPath4840" d="M141 113.974c0.035 22.622-18.292 40.994-40.938 41.025 -22.642 0.037-41.028-18.273-41.063-40.9 -0.035-22.62 18.292-41.064 40.937-41.1C122.579 72.964 140.967 91.349 141 113.974z" fill="url(#SvgjsRadialGradient4841)" opacity="1"></path><path id="SvgjsPath4844" d="M137.5 53.999c0 20.711-16.789 37.5-37.499 37.5 -20.711 0-37.501-16.789-37.501-37.5s16.79-37.5 37.501-37.5C120.711 16.499 137.5 33.288 137.5 53.999z" fill="url(#SvgjsRadialGradient4845)" opacity="1"></path></g><g id="svga-group-eyebrows-left-move" transform="matrix(1,0,0,1,0,0)"><g id="svga-group-eyebrows-left-rotate" transform="matrix(1,0,0,1,0,0)"><g id="svga-group-eyebrows-left" transform="matrix(1,0,0,1,0,0)"><path id="SvgjsPath5119" d="M54.872 71.479c0 0.55 13.681-0.174 15.036-0.312 23.276-2.375 24.726-7.885 21.625-7.963 -2.49-0.063-3.619 2.32-21.219 5.462C69.895 68.742 54.872 71.906 54.872 71.479z" fill="#2a232b" stroke-width="none" opacity="1"></path></g></g></g><g id="svga-group-eyebrows-right-move" transform="matrix(1,0,0,1,0,0)"><g id="svga-group-eyebrows-right-rotate" transform="matrix(1,0,0,1,0,0)"><g id="svga-group-eyebrows-right" transform="matrix(1,0,0,1,0,0)"><path id="SvgjsPath5120" d="M145.13 71.479c0 0.55-13.681-0.174-15.036-0.312 -23.276-2.375-24.726-7.885-21.625-7.963 2.49-0.063 3.619 2.32 21.219 5.462C130.107 68.742 145.13 71.906 145.13 71.479z" fill="#2a232b" stroke-width="none" opacity="1"></path></g></g></g><g id="svga-group-nose-single-move" transform="matrix(1,0,0,1,0,0)"><g id="svga-group-nose-single" transform="matrix(1,0,0,1,0,0)"><path id="SvgjsPath5134" d="M95.993 113.767c-0.221 2.279 0.695 4.137 1.688 4.511 2.534 0.951 2.097-0.253 2.327-4.159 0.493-8.369-0.306-28.12-0.306-28.12S96.513 108.409 95.993 113.767z" fill="#ffe7dd" stroke-width="none" opacity="0.2" stroke="none"></path><path id="SvgjsPath5135" d="M96.658 109.854c0 0-2.249 4.36-1.897 5.857 0.458 1.947 2.677 3.501 6.516 3.265 -3.965-0.567-4.419-1.791-4.819-3.392C96.109 114.188 96.658 109.854 96.658 109.854z" fill="#c66c49" stroke-width="none" opacity="1" stroke="none"></path></g></g><g id="svga-group-beardwrap" transform="matrix(1,0,0,1,0,0)"><g id="svga-group-beard-single-move" transform="matrix(1,0,0,1,0,0)"><g id="svga-group-beard-single" transform="matrix(1,0,0,1,0,0)"><path id="SvgjsPath5012" d="M93.82 138.68c3.68-1.48 3.65-0.37 8.15-0.68 1.53-0.11 3.03-0.06 4.35 0.95 -1 1.27-4.59 5.67-5.85 8.45C97.11 142.06 96.66 141.51 93.82 138.68z" fill="#2a232b" stroke-width="none" opacity="1"></path><path id="SvgjsPath5013" d="M98.35 142.37c-1.25-2.36-1.09-2.01-1.93-3.28C97.33 140.03 97.81 140.55 98.35 142.37zM98.54 139.48c0.14 0.76 1.02 4.55 1.26 5.32C99.64 142.54 99.36 141.49 98.54 139.48zM100.21 139.37c-0.06-0.27-0.01-0.47-0.01-0.47s-0.09 0.2-0.07 0.48c0.03 0.74 0.17 1.7 0.17 1.7 0.04 0.53 0.17 1.33 0.17 1.33C100.51 141.37 100.49 140.74 100.21 139.37zM102.24 139.4c-0.84 1.67-1.14 2.6-1.04 4.86C101.56 141.9 101.6 141.57 102.24 139.4zM104.09 139.09c-0.8 0.52-1.37 1.75-1.12 3.04C102.98 140.97 103.51 139.71 104.09 139.09z" fill="#1b141c" stroke-width="none" opacity="1"></path><path id="SvgjsPath5014" d="M101.72 137.92c-3.64 0.42-3.98-0.96-8.08 0.73 3.17 3.14 3.42 3.56 6.84 8.97 1.21-2.82 5.17-7.68 5.98-8.68C104.78 137.59 102.72 137.85 101.72 137.92zM100.33 146.99c-1.41-2.48-2.24-4.25-3.68-5.79 -0.09-0.09-2.47-2.43-2.6-2.43 3.5-1.07 2.57-0.1 9.25-0.48 0.96 0.05 2 0.2 2.84 0.7 -3.69 3.82-2.92 3.72-4.59 5.85C101.03 145.51 100.56 146.14 100.33 146.99z" fill="#0c080c" stroke-width="none" opacity="1"></path></g></g></g><g id="svga-group-mustache-single-move" transform="matrix(1,0,0,1,0,0)"><g id="svga-group-mustache-single" transform="matrix(1,0,0,1,0,0)"><path id="SvgjsPath5010" d="M100 124.48l-2.32 3.2c-0.4 0.56-1.04 0.9-1.73 0.92l-17.27 0.56c-0.23 0.01-0.44-0.14-0.5-0.37s0.03-0.46 0.23-0.58l3.54-2.05c0.45-0.26 0.96-0.42 1.48-0.46L100 124.48zM100 124.48l2.32 3.2c0.4 0.56 1.04 0.9 1.73 0.92l17.27 0.56c0.23 0.01 0.44-0.14 0.5-0.37 0.06-0.22-0.03-0.46-0.23-0.58l-3.54-2.05c-0.45-0.26-0.96-0.42-1.48-0.46L100 124.48z" fill="#2a232b" stroke-width="none" opacity="1"></path></g></g><g id="svga-group-hair-front" transform="matrix(1,0,0,1,0,0)"><path id="SvgjsPath5006" d="M47.026 91.499C36.463 75.132 33.771 45.712 41.42 29.37c3.677-8.152 11.5-16.87 19.933-22.212 3.296-1.755 14.915-7.519 25.207-7.519 2.41 0 4.566 0.328 6.409 0.976l0.128 0.045 0.117-0.068c2.99-1.725 6.747-2.046 14.581-2.148l0.25-0.003c1.869 0 3.991 0.519 6.679 1.175 2.018 0.493 4.305 1.052 7.044 1.532 14.452 2.091 25.214 9.782 31.994 22.861 11.354 21.899 7.755 51.169 2.551 61.403 -1.005 1.71-2.747 3.986-3.457 4.895 -2.569-6.597-2.109-9.274-1.58-12.363 0.486-2.823 1.035-6.024-0.416-12.708 -1.813-9.123-1.767-9.825-1.657-11.519 0.071-1.119 0.169-2.653-0.163-7.04 -1.297-8.593-4.051-18.792-13.937-21.607l-0.787-0.224 0.465 0.674c1.439 2.09 2.693 3.223 4.146 4.534 1.005 0.907 2.043 1.844 3.289 3.227 -0.877 0.208-1.729 0.307-2.646 0.307 -0.667 0-1.372-0.052-2.153-0.158l-0.747-0.102 0.482 0.582c0.824 0.995 2.164 2.119 3.241 3.022 0.251 0.21 0.489 0.411 0.706 0.597 -1.888 0.188-5.86 0.565-8.83 0.565 -0.9 0-1.652-0.035-2.233-0.102 -12.426-0.972-21.939-4-33.822-16.606l-0.219-0.233 -0.213 0.238c-2.139 2.382-3.451 3.556-5.765 5.442C79.22 35.362 60.993 42.51 51.347 44.644c2.717-3.577 3.516-6.073 3.868-7.173l0.08-0.245 -0.5-0.286c-1.06 1.211-1.746 1.854-2.594 2.512 0.01-0.048 0.021-0.097 0.031-0.147 0.235-1.119 0.629-2.991 1.007-6.871l0.109-1.112 -0.642 0.915c-4.648 6.618-4.203 16.015-3.811 24.306 0.209 4.41 0.407 8.576-0.191 11.822 -0.241 1.31-0.404 2.164-0.523 2.786 -0.193 1.004-0.272 1.42-0.372 2.184 -0.42 2.467-0.084 4.289 0.271 6.218C48.625 82.514 49.189 85.575 47.026 91.499z" fill="#2a232b" stroke-width="none" opacity="1"></path><path id="SvgjsPath5007" d="M156.313 85.41c-1.005 1.71-2.747 3.986-3.457 4.895 -4.851-12.454 1.084-10.881-1.996-25.071 -1.813-9.123-1.767-9.825-1.657-11.519 0.071-1.119 0.169-2.653-0.163-7.04 -2.384-15.797-7.969-19.74-14.626-21.635 3.238 4.701 4.341 4.399 7.802 8.238 -2.017 0.48-3.552 0.319-5.546 0.047 1.524 1.839 1.919 2.045 4.43 4.2 -20.885 2.083-32.607-3.115-45.104-16.376C84.298 34.184 60.663 42.583 51.347 44.644c2.298-3.023 3.205-5.132 3.947-7.418l-0.5-0.286c-1.06 1.211-1.746 1.854-2.594 2.512 0.636-3.031 0.833-4.916 1.146-8.13 -4.916 6.998-4.992 13.839-4.453 25.221 0.436 9.196 0.166 10.015-0.714 14.607 -1.88 9.786 2.647 9.943-1.153 20.35C36.463 75.132 33.771 45.712 41.42 29.37c1.542-3.419 3.821-6.936 6.562-10.265 -9.116 17.321-6.863 36.097-3.914 54.259 3.183-14.974-4.985-36.988 12.672-48.76 -0.251 4.011 0.04 4.3-1.274 8.526 1.999-1.542 4.529-3.101 7.099-5.442 0 4.905-2.439 7.648-5.505 12.554 8.215-3.434 32.004-13.243 38.019-28.679 8.829 11.772 22.562 20.601 38.257 22.563 -3.924-1.962-4.904-5.886-6.866-8.829 1.329 1.994 3.557 2.636 5.771 3.148 -3.475-3.993-2.631-5.865-3.475-10.928 8.321 5.933 13.512 6.156 18.417 13.022 8.089 14.409 9.959 31.208 8.187 48.006 3.777-22.269 4.31-50.502-11.041-67.09C165.663 31.031 163.301 71.67 156.313 85.41zM93.642 10.649c-7.696 9.673-18.75 16.569-29.838 23.461C83.652 24.708 89.941 16.459 93.642 10.649zM65.194 20.461C70.966 13.814 81.8 9.921 90.699 9.017 82.568 10.689 71.246 14.978 65.194 20.461zM44.92 35.176c3.365-11.42 12.869-21.716 27.794-26.159C58.992 14.661 49.245 24.915 44.92 35.176zM125.605 28.961c-11.956-3.481-22.122-11.056-27.059-17.983C104.801 17.909 117.104 25.159 125.605 28.961zM128.679 15.19c-14.388-6.021-18.71-7.194-28.497-7.809C111.377 6.862 117.438 8.883 128.679 15.19zM152.827 34.195c-3.864-10.752-15.955-22.29-29.429-25.505C138.173 10.557 150.093 22.106 152.827 34.195z" fill="#1b141c" stroke-width="none" opacity="1"></path><path id="SvgjsPath5008" d="M94.097 3.715c14.096-8.107 44.343 1.048 57.75 17.071 -5.559-9.81-19.544-18.116-30.079-19.64 -6.662-1.167-10.443-2.744-13.973-2.704C99.573-1.45 96.131-1.095 93.097 0.659c-9.233-3.216-23.166 1.931-31.744 6.499 -2.624 1.662-7.658 6.118-10.056 8.315C68.464 3.783 84.65-2.185 94.097 3.715z" fill="#322c33" stroke-width="none" opacity="1"></path><path id="SvgjsPath5009" d="M121.818 0.856c-6.584-1.154-10.664-2.793-14.027-2.708 -7.737 0.1-11.611 0.391-14.724 2.187C84.095-2.815 70.164 2.13 61.194 6.909c-8.02 5.081-16.169 13.751-20.041 22.337 -8.027 17.149-4.684 49.433 5.944 62.9 3.936-10.303-0.077-12.436 1-18.776 0.159-1.218 0.262-1.515 0.893-4.954 1.729-9.384-3.103-25.966 3.954-36.012 -0.499 5.102-1.016 6.692-1.178 7.74 1.253-0.918 1.984-1.569 3.247-3.012 -0.327 0.981-1.062 3.779-4.395 7.966 9.303-1.88 28.306-9.127 39.583-18.04 2.392-1.951 3.708-3.148 5.797-5.474 11.396 12.089 20.639 15.651 34.001 16.696 3.146 0.369 9.898-0.339 11.8-0.529 -1.059-0.97-3.264-2.633-4.424-4.032 1.894 0.257 3.62 0.234 5.356-0.285h0.01c-0.083-0.123-0.218-0.244-0.274-0.313 -3.09-3.438-5.032-4.266-7.446-7.77 9.221 2.625 12.299 11.911 13.724 21.346 0.852 11.268-1.146 3.633 1.825 18.6 3.108 14.311-3.034 12.512 2.198 25.593 0 0 2.492-3.111 3.806-5.346C165.161 68.663 167.408 7.454 121.818 0.856zM159.891 63.864c-1.55 19.571-3.241 21.057-6.994 26.369 -0.645-1.984-1.137-3.356-1.334-4.169 -1.516-5.478 2.872-9.442 0.353-21.042 -2.856-14.166-1.015-7.291-1.814-18.491 -1.686-10.32-5.623-19.876-16.03-21.611 1.051 2.778 6.656 7.095 8.124 8.407 -2.439 0.315-4.725 0.001-5.759-0.049 0.789 1.27 3.118 3.265 4.325 4.199 -21.423 0.401-32.106-4.996-44.506-16.177 -0.019-0.01-0.029-0.029-0.049-0.039 -0.137-0.127-0.274-0.246-0.401-0.373 -6.678 7.605-28.276 18.658-44.487 23.857 2.4-2.865 3.952-5.566 4.493-9.221 -0.858 0.981-1.332 1.814-3.453 3.777 0.713-2.228 1.159-6.304 1.236-8.662 -10.057 11.69-4.527 26.921-5.915 35.58 -0.379 3.881-1.742 6.671-0.981 11.831 0.654 3.077 2.125 6.251 0.235 13.165 -10.358-16.29-11.652-45.732-4.355-61.32 4.289-9.495 15.193-21.164 27.291-25.82 7.128-2.506 16.146-5.732 23.161-3.394 4.046-2.016 7.167-1.611 12.449-1.716 6.179-0.163 8.392 1.685 16.106 3.168 9.354 1.753 17.338 6.065 21.366 9.781C156.198 23.404 160.854 46.289 159.891 63.864z" fill="#000000" stroke-width="none" opacity="1"></path></g><g id="svga-group-glasses-single-move" transform="matrix(1,0,0,1,0,0)"><g id="svga-group-glasses-single" transform="matrix(1,0,0,1,0,0)"><path id="SvgjsPath5121" d="M107.18 85.7c0.25 0.34 0.26 0.68 0.32 1.27 0.06 0.58 0.08 1.01 0.08 1.01s0.11 1.46 0.24 2.33c0.13 0.88 0 1.63-1.2 1.63 -1.48 0-1.56-3.82-1.69-4.67C104.62 85.27 105.99 84.07 107.18 85.7zM92.82 85.7c-0.25 0.34-0.26 0.68-0.32 1.27 -0.06 0.58-0.08 1.01-0.08 1.01s-0.11 1.46-0.24 2.33c-0.13 0.88 0 1.63 1.2 1.63 1.48 0 1.56-3.82 1.69-4.67C95.38 85.27 94.01 84.07 92.82 85.7z" fill="#9b6db6" stroke-width="none" opacity="0.5"></path><path id="SvgjsPath5122" d="M148.51 85.14c-0.54 5.69-4.31 13.57-21.04 13.58h-0.04c-7.37 0-13.2-1.97-16.85-5.71 -2.77-2.83-4.15-6.52-4.15-10.94C116.3 76.92 140.48 77.34 148.51 85.14zM51.42 83.67c0.04 5.68 2.88 15.03 21.11 15.05h0.04c7.37 0 13.2-1.97 16.85-5.71 2.5-2.56 3.88-5.81 4.12-9.68C82.89 76.69 58.36 77.42 51.42 83.67z" fill="#ffffff" stroke-width="none" opacity="0.2"></path><path id="SvgjsPath5123" d="M148.59 83.53c0 0.51-0.02 1.05-0.08 1.6 -8.03-7.8-32.21-8.22-42.07-3.07 0-0.16-0.01-0.31-0.01-0.47 0-0.09 1.62-9.54 19.19-9.54C142.35 72.05 148.59 79.09 148.59 83.53zM74.38 72.05c-16.73 0-22.97 7.04-22.97 11.48 0 0.04 0 0.09 0 0.13 6.95-6.25 31.48-6.98 42.12-0.34 0.04-0.57 0.05-1.14 0.03-1.73C93.57 81.5 91.95 72.05 74.38 72.05z" fill="#ffffff" stroke-width="none" opacity="0.4"></path><path id="SvgjsPath5124" d="M125.62 71.84c-15.58 0-18.72 7.28-19.28 9.27 -0.84-0.18-1.19-0.23-1.73-0.74 -2.59-2.44-6.69-2.37-9.21 0 -0.54 0.51-0.9 0.56-1.73 0.74 -0.56-1.99-3.7-9.27-19.28-9.27 -16.89 0-23.18 7.17-23.18 11.69 0 5.75 2.77 15.4 21.33 15.4 18.84 0 21.17-11.69 21.25-17.04 1.38-0.29 1.78-0.33 2.51-1.01 2.23-2.09 5.19-2.11 7.42 0 0.74 0.69 1.14 0.72 2.51 1.01 0.08 5.35 2.41 17.04 21.25 17.04 18.55 0 21.33-9.65 21.33-15.4C148.8 79.01 142.51 71.84 125.62 71.84zM72.53 98.22c-17.93-0.02-20.61-9.2-20.61-14.69 0-4.24 6.1-10.98 22.47-10.98 17 0 18.69 8.96 18.69 9.06C93.31 92.22 85.3 98.23 72.53 98.22zM127.47 98.22c-12.77 0.01-20.79-6-20.54-16.61 0-0.09 1.69-9.06 18.69-9.06 16.37 0 22.47 6.74 22.47 10.98C148.09 89.02 145.41 98.2 127.47 98.22z" fill="#9b6db6" stroke-width="none" opacity="1"></path></g></g></g></g></g><rect id="svga-credit-rect" width="200" height="15" x="0" y="185" fill="#ecf0f1" opacity="0.5" style="display: none;"></rect><text id="svga-credit-text" font-family="Avenir Next, Roboto, Helvetica, Arial, sans-serif" font-size="10px" text-anchor="start" font-weight="400" size="10px" anchor="start" weight="400" fill="#333333" x="33.3125" y="182.609375" style="display: none;"><tspan id="SvgjsTspan4827" dy="13" x="33.3125">Created on AvatarMaker.com</tspan></text></g></svg>