<svg xmlns="http://www.w3.org/2000/svg" version="1.1" width="600px" height="600px" viewBox="0 0 200 200" style="overflow:hidden!important;"><defs id="SvgjsDefs10295"><radialGradient id="SvgjsRadialGradient10361" cx="100" cy="114" r="41" gradientUnits="userSpaceOnUse" class="svga-on-canvas-facehighlight-gradient-single-0"><stop id="SvgjsStop10362" stop-opacity="0.5" stop-color="#ffe9dd" offset="0" ></stop><stop id="SvgjsStop10363" stop-opacity="0" stop-color="#fbd5c0" offset="0.9" ></stop></radialGradient><radialGradient id="SvgjsRadialGradient10365" cx="100" cy="54" r="37" gradientUnits="userSpaceOnUse" class="svga-on-canvas-facehighlight-gradient-single-1"><stop id="SvgjsStop10366" stop-opacity="0.5" stop-color="#ffe9dd" offset="0" ></stop><stop id="SvgjsStop10367" stop-opacity="0" stop-color="#fbd5c0" offset="0.9" ></stop></radialGradient><radialGradient id="SvgjsRadialGradient10450" cx="-568.659" cy="-521.042" r="59.751" gradientTransform="matrix(0.096 -0.0248 0.0245 0.0961 141.2814 119.9893)" gradientUnits="userSpaceOnUse" class="svga-on-canvas-eyesiris-gradient-left-1"><stop id="SvgjsStop10451" stop-opacity="1" stop-color="#ffffff" offset="0" ></stop><stop id="SvgjsStop10452" stop-opacity="0" stop-color="#ffffff" offset="1" ></stop></radialGradient><radialGradient id="SvgjsRadialGradient10454" cx="-582.838" cy="-519.099" r="59.745" gradientTransform="matrix(0.0991 8.856319e-004 -0.0011 0.0991 131.1134 135.9855)" gradientUnits="userSpaceOnUse" class="svga-on-canvas-eyesiris-gradient-left-2"><stop id="SvgjsStop10455" stop-opacity="1" stop-color="#ffffff" offset="0" ></stop><stop id="SvgjsStop10456" stop-opacity="0" stop-color="#ffffff" offset="1" ></stop></radialGradient><linearGradient id="SvgjsLinearGradient10460" x1="122.67" y1="88.268" x2="123.606" y2="87.152" gradientTransform="matrix(1 0 0 1 -52 0)" gradientUnits="userSpaceOnUse" class="svga-on-canvas-eyesiris-gradient-left-5"><stop id="SvgjsStop10461" stop-opacity="1" stop-color="#ffffff" offset="0" ></stop><stop id="SvgjsStop10462" stop-opacity="0" stop-color="#ffffff" offset="1" ></stop></linearGradient><linearGradient id="SvgjsLinearGradient10468" x1="129.636" y1="79.822" x2="127.91" y2="81.879" gradientTransform="matrix(1 0 0 1 -52 0)" gradientUnits="userSpaceOnUse" class="svga-on-canvas-eyesiris-gradient-left-7"><stop id="SvgjsStop10469" stop-opacity="1" stop-color="#ffffff" offset="0" ></stop><stop id="SvgjsStop10470" stop-opacity="0" stop-color="#ffffff" offset="1" ></stop></linearGradient><radialGradient id="SvgjsRadialGradient10473" cx="-568.654" cy="-521.042" r="59.752" gradientTransform="matrix(0.096 -0.0248 0.0245 0.0961 193.2804 119.9894)" gradientUnits="userSpaceOnUse" class="svga-on-canvas-eyesiris-gradient-right-1"><stop id="SvgjsStop10474" stop-opacity="1" stop-color="#ffffff" offset="0" ></stop><stop id="SvgjsStop10475" stop-opacity="0" stop-color="#ffffff" offset="1" ></stop></radialGradient><radialGradient id="SvgjsRadialGradient10477" cx="-582.833" cy="-519.102" r="59.747" gradientTransform="matrix(0.0991 8.856319e-004 -0.0011 0.0991 183.1126 135.9856)" gradientUnits="userSpaceOnUse" class="svga-on-canvas-eyesiris-gradient-right-2"><stop id="SvgjsStop10478" stop-opacity="1" stop-color="#ffffff" offset="0" ></stop><stop id="SvgjsStop10479" stop-opacity="0" stop-color="#ffffff" offset="1" ></stop></radialGradient><linearGradient id="SvgjsLinearGradient10483" x1="122.67" y1="88.268" x2="123.606" y2="87.152" gradientUnits="userSpaceOnUse" class="svga-on-canvas-eyesiris-gradient-right-5"><stop id="SvgjsStop10484" stop-opacity="1" stop-color="#ffffff" offset="0" ></stop><stop id="SvgjsStop10485" stop-opacity="0" stop-color="#ffffff" offset="1" ></stop></linearGradient><linearGradient id="SvgjsLinearGradient10491" x1="129.636" y1="79.822" x2="127.91" y2="81.879" gradientUnits="userSpaceOnUse" class="svga-on-canvas-eyesiris-gradient-right-7"><stop id="SvgjsStop10492" stop-opacity="1" stop-color="#ffffff" offset="0" ></stop><stop id="SvgjsStop10493" stop-opacity="0" stop-color="#ffffff" offset="1" ></stop></linearGradient><linearGradient id="SvgjsLinearGradient10521" x1="100" y1="170" x2="100" y2="122" gradientUnits="userSpaceOnUse" class="svga-on-canvas-chinshadow-gradient-single-0"><stop id="SvgjsStop10522" stop-opacity="0.8" stop-color="#ecb99d" offset="0" ></stop><stop id="SvgjsStop10523" stop-opacity="1" stop-color="#cd865f" offset="0.7" ></stop></linearGradient><radialGradient id="SvgjsRadialGradient10531" cx="126.452" cy="84.563" r="15.179" gradientTransform="matrix(-0.9148 0.0479 0.0523 0.9986 184.4328 -6.6013)" gradientUnits="userSpaceOnUse" class="svga-on-canvas-eyesback-gradient-left-0"><stop id="SvgjsStop10532" stop-opacity="1" stop-color="#ffffff" offset="0" ></stop><stop id="SvgjsStop10533" stop-opacity="1" stop-color="#fdfefe" offset="0.544" ></stop><stop id="SvgjsStop10534" stop-opacity="1" stop-color="#f6f8f9" offset="0.74" ></stop><stop id="SvgjsStop10535" stop-opacity="1" stop-color="#eaeff2" offset="0.879" ></stop><stop id="SvgjsStop10536" stop-opacity="1" stop-color="#d9e3e8" offset="0.992" ></stop><stop id="SvgjsStop10537" stop-opacity="1" stop-color="#d8e2e7" offset="1" ></stop></radialGradient><radialGradient id="SvgjsRadialGradient10539" cx="126.017" cy="84.585" r="15.179" gradientTransform="matrix(0.9148 0.0479 -0.0523 0.9986 15.5672 -6.6013)" gradientUnits="userSpaceOnUse" class="svga-on-canvas-eyesback-gradient-right-0"><stop id="SvgjsStop10540" stop-opacity="1" stop-color="#ffffff" offset="0" ></stop><stop id="SvgjsStop10541" stop-opacity="1" stop-color="#fdfefe" offset="0.544" ></stop><stop id="SvgjsStop10542" stop-opacity="1" stop-color="#f6f8f9" offset="0.74" ></stop><stop id="SvgjsStop10543" stop-opacity="1" stop-color="#eaeff2" offset="0.879" ></stop><stop id="SvgjsStop10544" stop-opacity="1" stop-color="#d9e3e8" offset="0.992" ></stop><stop id="SvgjsStop10545" stop-opacity="1" stop-color="#d8e2e7" offset="1" ></stop></radialGradient><radialGradient id="SvgjsRadialGradient10547" cx="126.452" cy="84.563" r="15.179" gradientTransform="matrix(-0.9148 0.0479 0.0523 0.9986 184.4328 -6.6013)" gradientUnits="userSpaceOnUse" class="svga-on-canvas-eyesfront-gradient-left-0"><stop id="SvgjsStop10548" stop-opacity="1" stop-color="#ffffff" offset="0" ></stop><stop id="SvgjsStop10549" stop-opacity="1" stop-color="#fdfefe" offset="0.544" ></stop><stop id="SvgjsStop10550" stop-opacity="1" stop-color="#f6f8f9" offset="0.74" ></stop><stop id="SvgjsStop10551" stop-opacity="1" stop-color="#eaeff2" offset="0.879" ></stop><stop id="SvgjsStop10552" stop-opacity="1" stop-color="#d9e3e8" offset="0.992" ></stop><stop id="SvgjsStop10553" stop-opacity="1" stop-color="#d8e2e7" offset="1" ></stop></radialGradient><radialGradient id="SvgjsRadialGradient10557" cx="122.781" cy="80.48" fx="136.429" fy="80.114" r="16.914" gradientTransform="matrix(0.99 0.1411 0.1085 -0.7608 -53.0622 124.3787)" gradientUnits="userSpaceOnUse" class="svga-on-canvas-eyesfront-gradient-left-3"><stop id="SvgjsStop10558" stop-opacity="1" stop-color="#ecb99d" offset="0" ></stop><stop id="SvgjsStop10559" stop-opacity="0.3" stop-color="#ecb99d" offset="0.7" ></stop><stop id="SvgjsStop10560" stop-opacity="0" stop-color="#fbd5c0" offset="1" ></stop></radialGradient><radialGradient id="SvgjsRadialGradient10562" cx="70.049" cy="105.782" r="29.51" gradientTransform="matrix(1.0336 0 0 1.0336 -1.9413 1.255)" gradientUnits="userSpaceOnUse" class="svga-on-canvas-eyesfront-gradient-left-4"><stop id="SvgjsStop10563" stop-opacity="0" stop-color="#000000" offset="0.95" ></stop><stop id="SvgjsStop10564" stop-opacity="0.2" stop-color="#000000" offset="1" ></stop></radialGradient><radialGradient id="SvgjsRadialGradient10568" cx="126.017" cy="84.585" r="15.179" gradientTransform="matrix(0.9148 0.0479 -0.0523 0.9986 15.5672 -6.6013)" gradientUnits="userSpaceOnUse" class="svga-on-canvas-eyesfront-gradient-right-0"><stop id="SvgjsStop10569" stop-opacity="1" stop-color="#ffffff" offset="0" ></stop><stop id="SvgjsStop10570" stop-opacity="1" stop-color="#fdfefe" offset="0.544" ></stop><stop id="SvgjsStop10571" stop-opacity="1" stop-color="#f6f8f9" offset="0.74" ></stop><stop id="SvgjsStop10572" stop-opacity="1" stop-color="#eaeff2" offset="0.879" ></stop><stop id="SvgjsStop10573" stop-opacity="1" stop-color="#d9e3e8" offset="0.992" ></stop><stop id="SvgjsStop10574" stop-opacity="1" stop-color="#d8e2e7" offset="1" ></stop></radialGradient><radialGradient id="SvgjsRadialGradient10578" cx="122.382" cy="80.48" fx="136.03" fy="80.114" r="16.914" gradientTransform="matrix(-0.99 0.1411 -0.1085 -0.7608 252.2674 124.4351)" gradientUnits="userSpaceOnUse" class="svga-on-canvas-eyesfront-gradient-right-3"><stop id="SvgjsStop10579" stop-opacity="1" stop-color="#ecb99d" offset="0" ></stop><stop id="SvgjsStop10580" stop-opacity="0.3" stop-color="#ecb99d" offset="0.7" ></stop><stop id="SvgjsStop10581" stop-opacity="0" stop-color="#fbd5c0" offset="1" ></stop></radialGradient><radialGradient id="SvgjsRadialGradient10583" cx="70.436" cy="105.782" r="29.51" gradientTransform="matrix(-1.0336 0 0 1.0336 201.9413 1.255)" gradientUnits="userSpaceOnUse" class="svga-on-canvas-eyesfront-gradient-right-4"><stop id="SvgjsStop10584" stop-opacity="0" stop-color="#000000" offset="0.95" ></stop><stop id="SvgjsStop10585" stop-opacity="0.2" stop-color="#000000" offset="1" ></stop></radialGradient><linearGradient id="SvgjsLinearGradient10595" x1="132" y1="78" x2="126" y2="84" gradientTransform="matrix(1 0 0 1 -50 0)" gradientUnits="userSpaceOnUse" class="svga-on-canvas-eyesiris-gradient-left-6"><stop id="SvgjsStop10596" stop-opacity="1" stop-color="#ffffff" offset="0" ></stop><stop id="SvgjsStop10597" stop-opacity="0" stop-color="#ffffff" offset="1" ></stop></linearGradient><linearGradient id="SvgjsLinearGradient10605" x1="132" y1="78" x2="126" y2="84" gradientUnits="userSpaceOnUse" class="svga-on-canvas-eyesiris-gradient-right-6"><stop id="SvgjsStop10606" stop-opacity="1" stop-color="#ffffff" offset="0" ></stop><stop id="SvgjsStop10607" stop-opacity="0" stop-color="#ffffff" offset="1" ></stop></linearGradient><linearGradient id="SvgjsLinearGradient10615" x1="100" y1="142" x2="100" y2="139" gradientUnits="userSpaceOnUse" class="svga-on-canvas-mouth-gradient-single-0"><stop id="SvgjsStop10616" stop-opacity="1" stop-color="#f3c7ae" offset="0.1" ></stop><stop id="SvgjsStop10617" stop-opacity="1" stop-color="#ecb99d" offset="1" ></stop></linearGradient></defs><g id="svga-group-wrapper"><g id="svga-group-backs-single"><path id="SvgjsPath10515" d="M225 225H-25V-25h250V225z" fill="#45ada8" stroke-width="none" opacity="1"></path><path id="SvgjsPath10516" d="M30.816 56.624l3.375 1.049 -2.886 2.041 0.045 3.535 -2.833-2.114 -3.347 1.136 1.134-3.348 -2.114-2.833 3.535 0.044 2.041-2.886L30.816 56.624zM40.051 33.259l-1.586 5.428 -5.372 1.771 4.672 3.187L37.79 49.3l4.475-3.458 5.385 1.725 -1.905-5.325 3.303-4.588 -5.653 0.168L40.051 33.259zM9.358 99.38l-2.422 3.986 -4.711 0.273 3.104 3.526 -1.17 4.508 4.344-1.807 3.987 2.514 -0.421-4.643 3.633-2.954 -4.602-1.063L9.358 99.38zM11.271 71.054l0.168 3.531 -2.814 2.14 3.41 0.932 1.166 3.337 1.939-2.955 3.534-0.077 -2.21-2.759 1.019-3.384 -3.306 1.25L11.271 71.054zM5.396 51.958l3.615-2.959 0.182 4.63 3.969 2.479L8.755 57.71 7.592 62.2l-2.905-3.641L0 58.856l2.612-3.853 -1.735-4.307L5.396 51.958zM5.222 135.998l2.556-1.095 -0.621 2.515 1.908 1.88 -2.799 0.256 -1.377 2.256 -1.111-2.357 -2.758-0.484 2.115-1.714 -0.329-2.556L5.222 135.998zM20.532 155.007l2.81 0.867 -2.402 1.688 0.038 2.922 -2.358-1.748 -2.785 0.939 0.943-2.768 -1.76-2.342 2.942 0.037 1.699-2.387L20.532 155.007zM31.034 83.795l4.647 0.739 -3.406 3.215 0.738 4.622 -4.139-2.236 -4.191 2.116 0.849-4.598 -3.329-3.312 4.666-0.606 2.132-4.164L31.034 83.795zM22.119 29.902l5.203 1.198 -4.104 3.329 0.474 5.232 -4.507-2.832 -4.909 2.035 1.322-5.08 -3.509-3.974 5.325-0.307 2.738-4.491L22.119 29.902zM26.758 136.314l4.432-0.083 -2.633 3.463 1.437 4.064 -4.2-1.354L22.251 145l0.04-4.301 -3.627-2.46 4.226-1.304 1.298-4.115L26.758 136.314zM56.458 148.571l4.296-0.914 -1.894 3.861 2.184 3.68 -4.349-0.525 -2.947 3.188 -0.792-4.187 -4.005-1.709 3.86-2.063 0.468-4.242L56.458 148.571zM41.369 162.985l5.203 1.198 -4.104 3.329 0.474 5.232 -4.507-2.832 -4.909 2.035 1.322-5.08 -3.509-3.975 5.325-0.307 2.738-4.491L41.369 162.985zM30.869 110.835l5.203 1.199 -4.104 3.328 0.474 5.232 -4.507-2.832 -4.909 2.035 1.322-5.08 -3.509-3.974 5.325-0.308 2.738-4.49L30.869 110.835zM45.782 133.007l2.81 0.867 -2.402 1.688 0.038 2.922 -2.358-1.748 -2.785 0.939 0.943-2.768 -1.76-2.342 2.942 0.037 1.699-2.387L45.782 133.007zM39.066 13.124l3.375 1.049 -2.886 2.041 0.045 3.535 -2.833-2.114 -3.347 1.136 1.134-3.348 -2.114-2.833 3.535 0.044 2.041-2.886L39.066 13.124zM60.934 3.517L65.4 3.387l-2.609 3.538 1.505 4.106 -4.255-1.331 -3.536 2.667 -0.019-4.36L52.795 5.55l4.244-1.365L58.293 0 60.934 3.517zM65.782 172.007l2.81 0.867 -2.402 1.688 0.038 2.922 -2.358-1.748 -2.785 0.939 0.943-2.768 -1.76-2.342 2.942 0.037 1.699-2.387L65.782 172.007zM49.908 108.489l4.072-0.469 -2.299 3.158 1.465 3.299 -3.91-0.764 -3.165 2.505 -0.116-3.63 -3.422-1.752 3.84-1.479 1.047-3.586L49.908 108.489zM169.184 120.86l-3.376-1.049 2.886-2.041 -0.045-3.535 2.833 2.113 3.347-1.135 -1.134 3.348 2.114 2.832 -3.535-0.045 -2.04 2.887L169.184 120.86zM159.948 144.224l1.587-5.428 5.371-1.771 -4.672-3.187 -0.024-5.655 -4.475 3.458 -5.386-1.725 1.905 5.325 -3.303 4.589 5.652-0.168L159.948 144.224zM190.642 78.103l2.422-3.986 4.712-0.273 -3.104-3.526 1.17-4.508 -4.345 1.807 -3.987-2.514 0.421 4.643 -3.633 2.954 4.602 1.063L190.642 78.103zM188.729 106.43l-0.168-3.531 2.814-2.14 -3.409-0.932L186.8 96.49l-1.939 2.955 -3.534 0.077 2.211 2.759 -1.02 3.384 3.307-1.25L188.729 106.43zM194.604 125.525l-3.615 2.959 -0.182-4.63 -3.969-2.479 4.406-1.602 1.163-4.49 2.905 3.642 4.688-0.298 -2.612 3.853 1.735 4.307L194.604 125.525zM194.778 41.485l-2.556 1.095 0.62-2.515 -1.907-1.88 2.799-0.256 1.377-2.256 1.11 2.357 2.759 0.484 -2.115 1.714 0.329 2.556L194.778 41.485zM179.468 22.477l-2.811-0.867 2.402-1.688L179.022 17l2.358 1.748 2.784-0.939 -0.943 2.768 1.76 2.342 -2.942-0.037 -1.699 2.387L179.468 22.477zM168.966 93.688l-4.647-0.739 3.406-3.215 -0.738-4.622 4.139 2.236 4.191-2.116 -0.85 4.598 3.329 3.312 -4.665 0.606 -2.132 4.164L168.966 93.688zM177.881 147.581l-5.203-1.198 4.104-3.329 -0.474-5.232 4.507 2.832 4.909-2.035 -1.322 5.08 3.509 3.975 -5.325 0.307 -2.737 4.491L177.881 147.581zM173.241 41.169l-4.432 0.083 2.634-3.463 -1.437-4.064 4.2 1.354 3.541-2.595 -0.039 4.301 3.627 2.46 -4.226 1.304 -1.299 4.115L173.241 41.169zM151.968 35.013l-4.296 0.914 1.894-3.861 -2.185-3.68 4.349 0.525 2.947-3.188 0.792 4.187 4.006 1.709 -3.86 2.063 -0.469 4.242L151.968 35.013zM158.631 14.498l-5.203-1.198 4.104-3.329 -0.474-5.232 4.507 2.832 4.909-2.035 -1.322 5.08 3.509 3.975 -5.325 0.307 -2.737 4.491L158.631 14.498zM169.131 66.648l-5.203-1.199 4.104-3.328 -0.474-5.232 4.507 2.832 4.909-2.035 -1.322 5.08 3.509 3.974 -5.325 0.308 -2.737 4.49L169.131 66.648zM131.544 149.7l-2.81-0.867 2.402-1.688 -0.038-2.922 2.358 1.748 2.784-0.939 -0.943 2.768 1.76 2.342 -2.942-0.037 -1.699 2.387L131.544 149.7zM160.934 164.36l-3.376-1.049 2.886-2.041 -0.045-3.535 2.833 2.113 3.347-1.135 -1.134 3.348 2.114 2.832 -3.535-0.045 -2.04 2.887L160.934 164.36zM139.065 173.967l-4.466 0.13 2.609-3.539 -1.505-4.105 4.255 1.33 3.535-2.667 0.019 4.36 3.691 2.457 -4.243 1.365 -1.254 4.186L139.065 173.967zM134.218 5.477l-2.811-0.867 2.402-1.688L133.772 0l2.358 1.748 2.784-0.939 -0.943 2.768 1.76 2.342 -2.942-0.037 -1.699 2.387L134.218 5.477zM151.776 111.519l-4.072 0.469 2.299-3.158 -1.465-3.299 3.91 0.764 3.165-2.505 0.115 3.63 3.423 1.752 -3.84 1.479 -1.048 3.586L151.776 111.519z" fill="#5ebcb8" stroke-width="none" opacity="1"></path></g><g id="svga-group-humanwrap-move" transform="matrix(1,0,0,1,0,0)"><g id="svga-group-humanwrap" transform="matrix(1,0,0,1,0,0)"><g id="svga-group-hair-back-move" transform="matrix(1,0,0,1,0,0)"><g id="svga-group-hair-back" transform="matrix(1,0,0,1,0,0)"><path id="SvgjsPath10524" d="M100.5,100.5h-1v-1h1V100.5z" fill="#b7513b" stroke-width="none" opacity="1"></path></g></g><g id="svga-group-humanbody-single"><path id="SvgjsPath10368" d="M195.417 199.778c-2.196-4.746-8.195-11.779-14.86-13.722 -8.239-2.403-26.837-5.308-33.733-6.923 -5.528-1.296-16.662-11.294-20.564-14.65 -0.7-0.6-1.273-1.839-1.287-2.76 -0.139-10.864 4.195-39.724 4.195-39.724H100 70.833c0 0 4.334 28.859 4.193 39.724 -0.011 0.921-0.587 2.16-1.285 2.76 -3.902 3.356-15.036 13.354-20.564 14.65 -6.897 1.615-25.495 4.619-33.733 7.022 -6.667 1.942-12.664 8.876-14.86 13.622 -3.708 8.008-4.584 22.5-4.584 35h100 100C200 222.278 199.123 207.786 195.417 199.778z" fill="#fbd5c0" stroke-width="none" opacity="1" stroke="none"></path><path id="SvgjsPath10369" d="M159.156 184.058c24.342 3.542 34.586 8.708 37.794 50.721H200c0-12.5-0.877-26.992-4.583-35 -2.196-4.746-8.195-11.779-14.86-13.722 -8.239-2.403-26.837-5.308-33.733-6.923 -5.528-1.296-18.242-12.069-21.643-16.35 3.36 4.704 12.791 15.605 21.054 18.46C150.188 182.61 153.48 183.232 159.156 184.058zM53.766 181.244c8.263-2.854 17.693-13.756 21.054-18.46 -3.4 4.28-16.114 15.054-21.643 16.35 -6.896 1.615-25.494 4.619-33.733 7.022 -6.665 1.942-12.664 8.876-14.86 13.622 -3.706 8.008-4.583 22.5-4.583 35h3.05c3.188-41.744 13.475-47.183 37.794-50.721C46.52 183.232 49.813 182.61 53.766 181.244z" fill="#ffe9dd" stroke-width="none" opacity="1" stroke="none"></path><path id="SvgjsPath10370" d="M95.646 197.62c0 0-5.074-1.609-7.083-2.379 -10.449-4.009-44.395-6.607-44.395-6.607s35.754 1.419 43.644 2.779c-0.458-4.767-3.017-20.004-3.017-20.004s5.149 16.815 6.409 21.057C91.878 194.734 95.646 197.62 95.646 197.62zM106.445 196.278c-0.089 0.073-0.191 0.168-0.302 0.268C106.256 196.461 106.358 196.372 106.445 196.278zM95.646 197.62c0 0 2.893 2.992 4.347 3.03 1.91 0.051 4.828-2.899 6.151-4.104 -1.265 0.957-4.159 1.391-5.31 1.436C99.504 198.033 95.646 197.62 95.646 197.62zM116.664 190.101c-1.545 0.248-4.386 0.789-4.386 0.789l2.287-14.89c-0.646 3.071-4.474 16.211-8.12 20.278 1.91-1.616 6.158-2.391 8.324-2.704 10.236-1.484 10.232-1.483 41.062-4.94C155.831 188.634 126.76 188.479 116.664 190.101z" fill="#ecb99d" stroke-width="none" opacity="1" stroke="none"></path><path id="SvgjsPath10371" d="M195.417 199.778c-2.196-4.746-8.195-11.779-14.86-13.722 -8.239-2.403-26.837-5.308-33.733-6.923 -5.528-1.296-16.662-11.294-20.564-14.65 -0.7-0.6-1.273-1.839-1.287-2.76 -0.139-10.864 4.195-39.724 4.195-39.724H100 70.833c0 0 4.334 28.859 4.193 39.724 -0.011 0.921-0.587 2.16-1.285 2.76 -3.902 3.356-15.036 13.354-20.564 14.65 -6.897 1.615-25.495 4.619-33.733 7.022 -6.667 1.942-12.664 8.876-14.86 13.622 -3.708 8.008-4.584 22.5-4.584 35h100 100C200 222.278 199.123 207.786 195.417 199.778z" fill="none" stroke="#cd865f" stroke-width="1.5" opacity="1"></path></g><g id="svga-group-chinshadow-single"><path id="SvgjsPath10520" d="M75.085 163.986c6.598 3.574 14.825 5.886 25.017 5.88 10.183 0.006 18.332-2.283 24.839-5.829 -0.428-0.713-0.708-1.563-0.72-2.304 -0.126-9.877 3.345-34.021 4.076-38.983H71.703c0.73 4.963 4.202 29.106 4.074 38.982C75.768 162.441 75.497 163.279 75.085 163.986z" fill="url(#SvgjsLinearGradient10521)" opacity="1"></path></g><g id="svga-group-clothes-single"><path id="SvgjsPath10627" d="M204.771 234.683c-25.073-0.247-64.243-0.011-96.057 0.107l3.764-34.23c0.389-8.876 4.307-11.191 6.412-16.545 8.523-21.672 5.125-15.237 7.986-33.135 9.692 1.334 17.243 21.017 24.338 23.615 -0.013 0.428-0.331 2.404-0.756 4.897C187.119 186.985 200 178.735 204.771 234.683zM93.475 200.708c-1.059-3.137-5.48-7.747-7.551-10.751 -3.566-5.185-6.529-10.696-10.881-23.596 -0.007-0.147-0.702-11.408-1.848-16.205 -5.765 2.713-4.729 7.144-13.599 17.518 -1.859 2.164-5.543 2.829-9.259 5.004 -0.191 2.096-0.221 3.92-0.15 5.647 -9.297 1.408-35.372 7.032-44.861 14.346 -4.399 10.161-14.504 29.002-12.896 42.922 28.234-0.305 71.192-0.595 107.381-0.803 0 0 1.301-19.904-6.86-34.308C93.133 200.552 93.31 200.625 93.475 200.708z" fill="#d46fbb" stroke-width="none" opacity="1"></path><path id="SvgjsPath10628" d="M50.767 179.432c-19.906 5.692-32.87 9.836-42.029 15.092 -4.175 7.794-11.07 18.835-14.845 40.267 -0.052 0.001-0.968-0.093-1.021-0.093 0.093-17.071 7.793-30.803 12.432-41.844 10.206-8.257 32.288-12.34 44.999-14.381C50.34 178.543 50.731 179.366 50.767 179.432zM150.498 179.568c12.711 2.041 31.496 4.167 42.121 10.917 7.375 11.125 11.428 26.836 11.521 43.907 -0.052 0-0.968 0.094-1.021 0.093 -3.774-21.432-8.325-33.206-12.5-41 -9.159-5.256-20.679-7.266-40.585-12.958C150.07 180.462 150.461 179.639 150.498 179.568z" fill="#e38ece" stroke-width="none" opacity="1"></path><path id="SvgjsPath10629" d="M119.635 201.16c-1.72-0.976-4.987-1.16-7.002 0.596 0.596-1.756 2.792-3.204 5.675-3.524 9.016 1.769 19.906 13.866 30.706 18.396C138.306 214.798 127.818 205.804 119.635 201.16zM93.667 202.167L92.479 200c-2.057 0.038-6.953 0.482-9.014 2.309 -9.292 8.233-24.119 12.352-30.718 16.655C86.703 209.902 80.203 202.736 93.667 202.167z" fill="#b53b97" stroke-width="none" opacity="1"></path><path id="SvgjsPath10630" d="M115.619 198.985c-1.493 0.426-3.061 1.553-3.142 1.574 0.389-8.876 4.307-11.191 6.412-16.545 8.523-21.672 5.125-15.237 7.986-33.135 1.941 0.266 3.798 1.415 5.582 3.085 -1.227 9.5-3.84 17-7.646 25.567 4.461-2.522 9.298-5.611 13.672-8.026C129.391 179.69 118.516 187.081 115.619 198.985zM93.475 200.708c-1.059-3.137-5.48-7.747-7.551-10.751 -3.566-5.185-6.529-10.696-10.881-23.596 -0.007-0.147-0.702-11.408-1.848-16.205 -3.646 1.714-3.34 2.955-5.771 7.11 1.958 10.127 5.915 16.565 11.527 24.985 -4.784-3.154-11.462-8.545-18.071-11.847 11.134 8.348 21.139 18.74 28.653 29.804C91.972 199.465 92.066 200.003 93.475 200.708z" fill="#c553a9" stroke-width="none" opacity="1"></path><path id="SvgjsPath10631" d="M193.414 189.487c-8.551-5.06-23.349-8.462-42.541-10.779 0.263-2.481 0.451-4.26 0.454-4.287 -7.108-2.46-15.008-22.473-24.872-23.66 -7.303 44.887-11.722 29.555-15.365 49.24 -0.662 3.579-2.853 32.529-2.965 33.917 -2.574 0.003-5.149 0.006-7.725 0.01 0.547-17.962-6.32-32.084-6.74-32.994 -0.877-3.118-5.549-7.995-7.646-11.038 -5.437-7.907-7.91-15.09-10.862-23.54 0 0-0.482-11.635-1.662-16.356 -5.941 2.726-5.056 6.065-13.979 16.499 -2.523 2.937-5.948 4.17-9.286 6.17 -0.173 1.899-0.199 3.705-0.135 5.452 -34.277 4.349-41.74 11.957-45.889 13.782 -2.94 9.523-12.333 23.334-12.421 43.842 29.629 0 34.064 0.401 123.482 0.081 13.869-0.059 27.733-0.134 41.604-0.223 20.477-0.12 48.669 0.467 48.669 0.467C205.536 214.739 200.869 201.902 193.414 189.487zM117.634 186.921c6.985-13.686 6.985-16.936 9.68-35.623 8.454 2.822 16.191 20.952 23.12 23.187 -4.939 25.516-2.263 35.379-1.91 41.354 -2.575-1.386-4.559-2.651-7.061-4.148 -7.721-4.629-13.066-10.239-21.258-13.583 -2.219-0.936-5.408 0.459-7.36 1.894C113.922 190.583 115.012 192.058 117.634 186.921zM119.286 198.722c0.002-0.015 0.005-0.027 0.007-0.041C119.565 198.637 119.409 198.677 119.286 198.722zM112.756 202.773c0.389-1.978 3.374-3.115 4.863-3.621 -1.926 8.558-4.446 20.08-4.495 34.762 -1.249 0.001-2.499 0.002-3.749 0.003C109.483 232.632 111.173 210.838 112.756 202.773zM98.931 233.931c-0.79 0.001-1.579 0.003-2.369 0.004 1.111-12.801-5.605-23.81-8.693-33.038 0.806-0.082 3.21-0.736 3.875-0.622C93.387 201.514 100.999 221.875 98.931 233.931zM60.03 167.448c9.546-10.978 7.557-13.666 12.843-16.896 0.331 3.15 0.595 6.323 0.761 9.506 0.563 11.263-0.939 3.57 3.492 15.177 6.513 17.058 12.336 18.518 15.318 24.367 -10.575-0.741-12.118 7.192-21.631 10.363 -8.755 3.447-6.354 1.844-18.373 8.736 3.358-23.819-1.74-34.836-1.74-45.571C54.159 171.341 57.48 170.367 60.03 167.448zM-6.797 234.569c1.667-20.667 9.704-34.022 13-41.333 4.645-2.986 20.026-10.925 43.921-14.394 0.336 6.598 1.925 12.369 2.053 18.93 0.238 6.276 0.213 14.08-0.253 21.732 4.45-2.042 8.725-4.477 13.68-6.258 13.805-5.006 11.434-6.111 18.043-10.674 1.583-1.104 1.344-1.118 2.722-1.463 2.565 7.987 10.662 18.897 8.807 32.827C59.931 234.008 24.849 234.226-6.797 234.569zM114.609 233.914c-0.317-12.454 2.644-23.005 4.664-35.122 4.855 0.064 18.32 13.418 30.146 18.427 0.271-4.209-0.175-12.976-0.175-22.733 -0.004-0.29 0.911-8.994 1.529-14.842 11.277 3.239 29.571 3.27 41.841 11.982 4.922 9.443 10.851 20.048 11.255 42.61C175.918 234.002 145.432 233.899 114.609 233.914z" fill="#a62586" stroke-width="none" opacity="1"></path></g><g id="svga-group-head" transform="matrix(1,0,0,1,0,0)"><g id="svga-group-ears-left-move" transform="matrix(1,0,0,1,0,0)"><g id="svga-group-ears-left" transform="matrix(1,0,0,1,0,0)"><path id="SvgjsPath10622" d="M45.671 84.344c-1.485-2.462-6.327-9.199-10.031-8.254 -3.012 0.772-2.973 4.971-3.206 7.455 -0.34 3.644-0.464 9.992 0.525 12.568 0.951 2.473 3.96 7.252 5.828 9.075 2.299 2.235 5.97 9.358 6.422 10.097 0.711 1.168 2.137 2.84 4.325 2.708 3.071-0.185 5.724-3.087 5.965-4.485C56.8 105.918 49.536 90.75 45.671 84.344z" fill="#fbd5c0" stroke="#cd865f" stroke-width="1.5" opacity="1"></path><path id="SvgjsPath10623" d="M44.2 99.341c-0.143-0.563 0.007-1.513 0.154-2.429 0.133-0.835 0.258-1.624 0.182-2.182 -0.289-2.09-1.915-6.06-2.976-8.212 -1.223-2.476-3.199-5.595-5.679-6.399 -1.024-0.333-1.699 0.065-2.089 0.468 -0.288 0.296-0.353 0.645-0.259 0.687 0.095 0.041 0.307-0.248 0.617-0.519 0.254-0.222-0.508-0.04 0 0 -0.205 1.04-0.865 6.302-0.41 10.143 0.358 3.022 1.05 5.279 1.263 5.617 0.031 0.356 0.083 0.705 0.16 1.043 1.002 4.41 7.518 10.177 9.034 11.82 0.28 0.303 0.574 0.483 0.646 0.409s-0.101-0.373-0.379-0.678c-1.498-1.632-7.971-7.381-8.939-11.635 -1.027-4.514 3.912-11.207 4.699-12.623 0.401 0.665 0.742 1.303 1.004 1.835 0.207 0.417 0.434 0.906 0.67 1.435 -0.463 0.738-5.118 6.127-3.934 10.441 0.438 1.591 3.822 3.642 5.131 4.203 0.72 0.31 0.99 0.772 1.304 1.306 0.364 0.624 0.033 2.229 1.23 2.739 0.244 0.104 0.464 0.146 0.659 0.146 0.338 0 0.594-0.13 0.783-0.284 0.02 0.271 0.019 0.619 0.009 0.941 -0.012 0.418 0.047 0.609 0.148 0.617 0.103 0.009 0.21-0.174 0.223-0.587 0.017-0.51 0.014-1.141-0.077-1.444 -0.269-0.889-1.088-1.894-1.957-2.957C44.563 102.197 44.422 100.213 44.2 99.341zM34.969 95.432c-2.348-6.923 1.283-13.229 1.81-14.179 1.012 0.399 2.562 2.193 3.221 3.235C39.52 85.321 35.067 90.775 34.969 95.432zM45.772 106.464c-1.084-0.462-0.706-1.984-1.056-2.584 -0.318-0.542-0.646-1.102-1.479-1.46 -0.18-0.078-0.379-0.196-0.583-0.332 -2.682-6.075 0.293-8.73 1.039-9.273 0.229 0.742 0.399 1.423 0.476 1.97 0.068 0.5-0.059 1.298-0.181 2.068 -0.153 0.955-0.31 1.944-0.147 2.584 0.244 0.953 0.411 2.97 1.291 4.048 0.781 0.956 1.583 1.942 1.857 2.746C46.871 106.391 46.5 106.775 45.772 106.464z" fill="#cd865f" stroke-width="none" opacity="1"></path></g></g><g id="svga-group-ears-right-move" transform="matrix(1,0,0,1,0,0)"><g id="svga-group-ears-right" transform="matrix(1,0,0,1,0,0)"><path id="SvgjsPath10624" d="M154.066 84.344c1.486-2.462 6.328-9.199 10.031-8.254 3.012 0.772 2.973 4.971 3.207 7.455 0.34 3.644 0.463 9.992-0.525 12.568 -0.951 2.473-3.961 7.252-5.828 9.075 -2.299 2.235-5.971 9.358-6.422 10.097 -0.711 1.168-2.137 2.84-4.326 2.708 -3.07-0.185-5.723-3.087-5.965-4.485C142.938 105.918 150.203 90.75 154.066 84.344z" fill="#fbd5c0" stroke="#cd865f" stroke-width="1.5" opacity="1"></path><path id="SvgjsPath10625" d="M154.322 103.243c-0.869 1.063-1.688 2.068-1.957 2.957 -0.092 0.304-0.094 0.935-0.078 1.444 0.014 0.413 0.121 0.596 0.225 0.587 0.102-0.008 0.16-0.199 0.148-0.617 -0.01-0.322-0.012-0.67 0.008-0.941 0.189 0.154 0.445 0.284 0.783 0.284 0.195 0 0.416-0.042 0.66-0.146 1.195-0.511 0.865-2.116 1.229-2.739 0.314-0.534 0.584-0.997 1.305-1.306 1.309-0.561 4.693-2.611 5.131-4.203 1.184-4.314-3.471-9.704-3.934-10.441 0.234-0.529 0.463-1.018 0.668-1.435 0.264-0.532 0.604-1.171 1.006-1.835 0.787 1.416 5.725 8.108 4.699 12.623 -0.969 4.254-7.441 10.003-8.939 11.635 -0.279 0.305-0.453 0.604-0.381 0.678 0.074 0.074 0.367-0.106 0.646-0.409 1.516-1.643 8.031-7.41 9.033-11.82 0.078-0.338 0.131-0.687 0.162-1.043 0.211-0.337 0.904-2.594 1.262-5.617 0.455-3.841-0.205-9.103-0.41-10.143 0.508-0.04-0.254-0.222 0 0 0.311 0.271 0.523 0.56 0.617 0.519 0.094-0.042 0.029-0.39-0.258-0.687 -0.391-0.403-1.066-0.801-2.09-0.468 -2.48 0.804-4.457 3.923-5.68 6.399 -1.061 2.152-2.686 6.122-2.975 8.212 -0.076 0.558 0.049 1.347 0.182 2.182 0.146 0.916 0.297 1.866 0.154 2.429C155.316 100.213 155.176 102.197 154.322 103.243zM159.738 84.488c0.66-1.042 2.209-2.835 3.221-3.235 0.527 0.95 4.158 7.256 1.811 14.179C164.672 90.775 160.219 85.321 159.738 84.488zM152.75 106.229c0.273-0.804 1.076-1.79 1.857-2.746 0.879-1.078 1.047-3.095 1.291-4.048 0.162-0.64 0.006-1.629-0.146-2.584 -0.123-0.77-0.25-1.568-0.182-2.068 0.076-0.547 0.246-1.228 0.475-1.97 0.746 0.543 3.721 3.199 1.039 9.273 -0.203 0.136-0.402 0.254-0.584 0.332 -0.832 0.358-1.16 0.918-1.479 1.46 -0.35 0.6 0.029 2.123-1.055 2.584C153.238 106.775 152.867 106.391 152.75 106.229z" fill="#cd865f" stroke-width="none" opacity="1"></path></g></g><g id="svga-group-faceshape-wrap" transform="matrix(1,0,0,1,0,0)"><g id="svga-group-faceshape-single"><path id="SvgjsPath10517" d="M100.103 0.867C66.481 0.814 39.286 28.147 39.234 61.929c-0.008 5.365 0.669 10.569 1.953 15.53l0.004 0c0.011 0.054 8.121 28.575 9.808 43.634 1.244 11.102 12.587 40.796 49.103 40.773 36.515 0.022 46.938-29.431 48.897-40.773 2.58-14.929 10.001-43.58 10.013-43.634l0.005 0c1.283-4.961 1.961-10.165 1.952-15.53C160.919 28.147 133.723 0.814 100.103 0.867z" fill="#fbd5c0" stroke-width="none" opacity="1" stroke="none"></path><path id="SvgjsPath10518" d="M135.855 12.494c11.761 11.195 19.223 27.819 19.246 46.408 0.008 5.365-0.602 10.569-1.761 15.53l-0.005 0c-0.011 0.054-6.717 28.706-9.05 43.634 -1.771 11.343-11.189 40.795-44.184 40.773 -32.996 0.021-43.246-29.672-44.369-40.773 -1.526-15.059-8.853-43.581-8.863-43.634l-0.004 0c-1.162-4.961-1.772-10.165-1.765-15.53 0.026-18.59 7.489-35.215 19.25-46.41 -15.199 11.093-25.086 29.09-25.117 49.438 -0.008 5.365 0.669 10.569 1.953 15.53l0.004 0c0.011 0.054 8.121 28.575 9.808 43.634 1.244 11.102 12.587 40.796 49.103 40.773 36.515 0.022 46.938-29.431 48.897-40.773 2.58-14.929 10.001-43.58 10.013-43.634l0.005 0c1.283-4.961 1.961-10.165 1.952-15.53C160.939 41.583 151.053 23.587 135.855 12.494z" fill="#f3c7ae" stroke-width="none" opacity="1" stroke="none"></path><path id="SvgjsPath10519" d="M100.103 0.867C66.481 0.814 39.286 28.147 39.234 61.929c-0.008 5.365 0.669 10.569 1.953 15.53l0.004 0c0.011 0.054 8.121 28.575 9.808 43.634 1.244 11.102 12.587 40.796 49.103 40.773 36.515 0.022 46.938-29.431 48.897-40.773 2.58-14.929 10.001-43.58 10.013-43.634l0.005 0c1.283-4.961 1.961-10.165 1.952-15.53C160.919 28.147 133.723 0.814 100.103 0.867z" fill="none" stroke="#cd865f" stroke-width="1.5" opacity="1"></path></g></g><g id="svga-group-mouth-single-move" transform="matrix(1,0,0,1,0,0)"><g id="svga-group-mouth-single" transform="matrix(1,0,0,1,0,0)"><path id="SvgjsPath10614" d="M96.227 139.237l8.297-0.207C103.563 143.5 96.884 142.858 96.227 139.237z" fill="url(#SvgjsLinearGradient10615)" opacity="1"></path><path id="SvgjsPath10618" d="M96.343 139.52c-0.371-0.05-0.315-0.579 0.08-0.542 0.043 0.006 4.308 0.546 7.878-0.215 0.386-0.075 0.5 0.455 0.13 0.534C101.634 139.895 98.015 139.755 96.343 139.52zM100.083 135.95c-1.503 0-2.96-0.521-4.424-0.776 -1.64-0.287-3.274-0.041-4.915 0.104 -1.676 0.149-5.333-0.013-6.365-0.666 -0.578-0.367-0.47-1.221 0.181-1.449 0.614-0.22 1.571 0.236 2.191 0.347 2.872 0.515 4.384-0.034 6.902-0.118 3.851-0.116 4.26 1.501 9.064 0.53 5.165-1.044 7.491-0.254 11.197-1.37 0.508-0.154 1.112-0.56 1.645-0.286 0.615 0.318 0.585 1.185-0.049 1.464 -3.406 1.502-7.174 0.895-10.955 1.526C103.073 135.502 101.596 135.95 100.083 135.95z" fill="#cd865f" stroke-width="none" opacity="1" stroke="none"></path></g></g><g id="svga-group-eyes-left-move" transform="matrix(1,0,0,1,0,0)"><g id="svga-group-eyes-left" transform="matrix(1,0,0,1,0,0)"><g id="svga-group-eyesback-left"><path id="SvgjsPath10530" d="M60.432 80.957c1.226-1.179 9.091-2.674 13.631-2.075 7.183 0.947 13 7.285 13 7.285s-4.836 3.083-13.61 3.56C67.673 90.042 61.86 86.309 60.432 80.957z" fill="url(#SvgjsRadialGradient10531)" opacity="1"></path></g><g id="svga-group-eyesiriswrapper-left" transform="matrix(1,0,0,1,0.25,0)"><g id="svga-group-eyesiriscontrol-left" transform="matrix(1,0,0,1,0,0)"><g id="svga-group-eyesiris-left" transform="matrix(1,0,0,1,0,0)"><path id="SvgjsPath10588" d="M79.788 85.588c-0.869 3.192-4.16 5.073-7.358 4.196 -3.195-0.876-5.083-4.178-4.212-7.371 0.868-3.195 4.167-5.076 7.362-4.198C78.773 79.09 80.658 82.392 79.788 85.588z" fill="#ddb332" stroke="#af8400" stroke-width="0.5" opacity="1"></path><path id="SvgjsPath10589" d="M73.265 80.413l-0.156-0.279c-0.548 0.218-1.076 0.445-1.575 0.687l0.37 0.894 -0.047 0.517 -1.426-0.839c-0.466 0.259-0.898 0.529-1.318 0.804l0.004 0.009 -0.489 0.55 0.781 0.799 -1.052 0.574 0.398 0.657 1.857 0.185 -1.741 1.181 1.863-0.103 -0.982 1.693 2.297-1.39 -0.618 2.364 1.329-2.184 0.256 2.343 0.384-2.072 0.353-0.043 0.5 2.35 0.152-0.705c0.201-0.052 0.718 0.704 0.915 0.651L74.736 86.5l1.282 2.556 -0.52-2.651 1.578 2.05c0.057-0.018 0.196-0.85 0.252-0.867l-0.982-1.469 1.785 0.539 -1.071-1.16 -0.86-0.712 3.586 0.803 -1.997-1.217 1.411-0.577 -3.055-0.309 3.021-1.602 -2.734 0.698 -0.736-0.399 -0.181-0.354 0.052-0.846 0.061-1.389 -1.248 2.198 -0.11-1.609 -0.157-0.421c-0.25 0.087-0.495 0.172-0.736 0.265L73.265 80.413z" fill="#ecc54d" stroke-width="none" opacity="1"></path><path id="SvgjsPath10590" d="M79.856 82.755c-5.242 0.239-7.907 1.36-11.707 2.631 -0.732-3.229 1.298-6.438 4.53-7.164S79.125 79.525 79.856 82.755z" fill="#cea21a" stroke-width="none" opacity="0.9"></path><path id="SvgjsPath10591" d="M74.869 81.998c-1.319-0.378-2.666 0.375-3.005 1.69 -0.342 1.308 0.452 2.678 1.771 3.056 1.32 0.379 2.667-0.375 3.009-1.684C76.987 83.745 76.19 82.376 74.869 81.998z" fill="#000000" stroke-width="none" opacity="0.8"></path><path id="SvgjsPath10592" d="M74.869 81.998c-1.319-0.378-2.666 0.375-3.005 1.69 -0.342 1.308 0.452 2.678 1.771 3.056 1.32 0.379 2.667-0.375 3.009-1.684C76.987 83.745 76.19 82.376 74.869 81.998z" fill="none" stroke="#af8400" stroke-width="0.75" opacity="1"></path><path id="SvgjsPath10593" d="M69.631 87.56c0.613 0.973 1.426 1.706 2.578 1.95 1.326 0.281 1.477-1.483 0.528-1.685 -0.72-0.152-1.176-0.505-1.552-1.102C70.497 85.63 69.079 86.684 69.631 87.56L69.631 87.56z" fill="#ffffff" stroke-width="none" opacity="0.4"></path><path id="SvgjsPath10594" d="M75.033 81.493c0.929 0.187 1.469 0.768 1.938 1.64 0.862 1.604 3.299 0.178 2.437-1.425 -0.757-1.408-2.019-2.613-3.625-2.938C73.726 78.355 73.438 81.171 75.033 81.493L75.033 81.493z" fill="url(#SvgjsLinearGradient10595)" opacity="1"></path></g></g></g><g id="svga-group-eyesfront-left"><path id="SvgjsPath10555" d="M55.132 85c0 13.808 12.668 20.999 18 20.999 9.94 0 18-7.191 18-20.999 0-13.809-8.06-25.001-18-25.001S55.132 71.191 55.132 85zM60.432 80.957c1.226-1.179 9.091-2.674 13.631-2.075 7.183 0.947 13 7.285 13 7.285s-4.836 3.083-13.61 3.56C67.673 90.042 61.86 86.309 60.432 80.957z" fill="#fbd5c0" stroke-width="none" opacity="1" stroke="none"></path><path id="SvgjsPath10556" d="M73.981 93.592c9.412 2.223 18.451-1.61 20.194-8.565 1.738-6.956-4.478-14.395-13.892-16.622 -9.414-2.224-18.453 1.609-20.195 8.565C58.35 83.927 64.564 91.365 73.981 93.592zM60.432 80.957c1.226-1.179 9.091-2.674 13.631-2.075 7.183 0.947 13 7.285 13 7.285s-4.836 3.083-13.61 3.56C67.673 90.042 61.86 86.309 60.432 80.957z" fill="url(#SvgjsRadialGradient10557)" opacity="1"></path><path id="SvgjsPath10561" d="M60.432 80.957c1.226-1.179 9.091-2.674 13.631-2.075 7.183 0.947 13 7.285 13 7.285s-4.836 3.083-13.61 3.56C67.673 90.042 61.86 86.309 60.432 80.957z" fill="url(#SvgjsRadialGradient10562)" opacity="1"></path><path id="SvgjsPath10565" d="M86.632 82.458c-6.502-4.251-4.054-3.09-16.23-6.703 3.344 0.5 9.572 2.066 11.707 3.32C83.272 79.729 85.632 81.584 86.632 82.458z" fill="#cd865f" stroke-width="none" opacity="1" stroke="none"></path><path id="SvgjsPath10566" d="M58.853 80.886c1.947 4.926 9.734 13.961 29.285 5.533 -3.097-3.36-11.005-9.113-18.159-9.063C63.986 77.397 60.637 79.265 58.853 80.886zM60.432 81.074c1.226-1.137 9.091-2.58 13.631-2.001 7.183 0.913 13 7.026 13 7.026s-4.836 2.974-13.61 3.434C67.673 89.836 61.86 86.236 60.432 81.074z" fill="#000000" stroke-width="none" opacity="1" stroke="none"></path></g></g></g><g id="svga-group-eyes-right-move" transform="matrix(1,0,0,1,0,0)"><g id="svga-group-eyes-right" transform="matrix(1,0,0,1,0,0)"><g id="svga-group-eyesback-right"><path id="SvgjsPath10538" d="M139.169 80.957c-1.226-1.179-9.091-2.674-13.631-2.075 -7.183 0.947-13 7.285-13 7.285s4.836 3.083 13.61 3.56C131.928 90.042 137.74 86.309 139.169 80.957z" fill="url(#SvgjsRadialGradient10539)" opacity="1"></path></g><g id="svga-group-eyesiriswrapper-right" transform="matrix(1,0,0,1,-0.25,0)"><g id="svga-group-eyesiriscontrol-right" transform="matrix(1,0,0,1,0,0)"><g id="svga-group-eyesiris-right" transform="matrix(1,0,0,1,0,0)"><path id="SvgjsPath10598" d="M131.788 85.587c-0.869 3.193-4.16 5.074-7.358 4.196 -3.195-0.876-5.082-4.178-4.212-7.371 0.867-3.195 4.167-5.076 7.361-4.198C130.774 79.091 132.658 82.393 131.788 85.587z" fill="#ddb332" stroke="#af8400" stroke-width="0.5" opacity="1"></path><path id="SvgjsPath10599" d="M125.266 80.413l-0.155-0.278c-0.548 0.217-1.076 0.445-1.576 0.686l0.37 0.894 -0.047 0.517 -1.426-0.839c-0.467 0.259-0.898 0.529-1.317 0.804l0.004 0.009 -0.49 0.551 0.782 0.799 -1.052 0.573 0.397 0.657 1.857 0.185 -1.741 1.181 1.863-0.103 -0.982 1.692 2.296-1.39 -0.616 2.364 1.328-2.184 0.257 2.343 0.384-2.073 0.353-0.043 0.501 2.35 0.151-0.704c0.201-0.052 0.719 0.703 0.915 0.651l-0.585-2.556 1.283 2.556 -0.521-2.651 1.577 2.05c0.057-0.018 0.197-0.85 0.253-0.867l-0.982-1.469 1.786 0.538 -1.071-1.16 -0.859-0.712 3.586 0.802 -1.997-1.216 1.411-0.577 -3.054-0.308 3.021-1.603 -2.734 0.698 -0.736-0.399 -0.18-0.354 0.052-0.847 0.061-1.388 -1.247 2.198 -0.11-1.609 -0.156-0.422c-0.25 0.087-0.495 0.173-0.735 0.265L125.266 80.413z" fill="#ecc54d" stroke-width="none" opacity="1"></path><path id="SvgjsPath10600" d="M131.855 82.755c-5.24 0.239-7.906 1.36-11.706 2.631 -0.731-3.229 1.298-6.438 4.53-7.164C127.911 77.495 131.126 79.525 131.855 82.755z" fill="#cea21a" stroke-width="none" opacity="0.9"></path><path id="SvgjsPath10601" d="M126.87 81.998c-1.319-0.378-2.666 0.376-3.005 1.69 -0.343 1.308 0.451 2.678 1.77 3.056 1.322 0.379 2.668-0.375 3.009-1.684C128.987 83.745 128.189 82.376 126.87 81.998z" fill="#000000" stroke-width="none" opacity="0.8"></path><path id="SvgjsPath10602" d="M126.87 81.998c-1.319-0.378-2.666 0.376-3.005 1.69 -0.343 1.308 0.451 2.678 1.77 3.056 1.322 0.379 2.668-0.375 3.009-1.684C128.987 83.745 128.189 82.376 126.87 81.998z" fill="none" stroke="#af8400" stroke-width="0.75" opacity="1"></path><path id="SvgjsPath10603" d="M121.632 87.56c0.612 0.973 1.426 1.706 2.577 1.95 1.326 0.281 1.478-1.482 0.528-1.685 -0.72-0.152-1.177-0.504-1.552-1.102C122.498 85.63 121.079 86.684 121.632 87.56L121.632 87.56z" fill="#ffffff" stroke-width="none" opacity="0.4"></path><path id="SvgjsPath10604" d="M127.034 81.493c0.929 0.187 1.469 0.767 1.938 1.639 0.862 1.604 3.3 0.178 2.437-1.425 -0.757-1.408-2.018-2.613-3.625-2.938C125.727 78.355 125.438 81.171 127.034 81.493L127.034 81.493z" fill="url(#SvgjsLinearGradient10605)" opacity="1"></path></g></g></g><g id="svga-group-eyesfront-right"><path id="SvgjsPath10576" d="M126.469 59.999c-9.94 0-18 11.193-18 25.001 0 13.808 8.06 20.999 18 20.999 7.201 0 18-7.191 18-20.999C144.469 71.191 136.409 59.999 126.469 59.999zM126.148 89.727c-8.774-0.476-13.61-3.56-13.61-3.56s5.817-6.338 13-7.285c4.54-0.6 12.405 0.896 13.631 2.075C137.74 86.309 131.928 90.042 126.148 89.727z" fill="#fbd5c0" stroke-width="none" opacity="1" stroke="none"></path><path id="SvgjsPath10577" d="M139.512 76.971c-1.742-6.956-10.781-10.79-20.195-8.565 -9.414 2.227-15.63 9.666-13.892 16.622 1.743 6.955 10.782 10.788 20.194 8.565C135.036 91.365 141.251 83.927 139.512 76.971zM126.148 89.727c-8.774-0.476-13.61-3.56-13.61-3.56s5.817-6.338 13-7.285c4.54-0.6 12.405 0.896 13.631 2.075C137.74 86.309 131.928 90.042 126.148 89.727z" fill="url(#SvgjsRadialGradient10578)" opacity="1"></path><path id="SvgjsPath10582" d="M139.169 80.957c-1.226-1.179-9.091-2.674-13.631-2.075 -7.183 0.947-13 7.285-13 7.285s4.836 3.083 13.61 3.56C131.928 90.042 137.74 86.309 139.169 80.957z" fill="url(#SvgjsRadialGradient10583)" opacity="1"></path><path id="SvgjsPath10586" d="M112.969 82.458c6.502-4.251 4.054-3.09 16.23-6.703 -3.344 0.5-9.572 2.066-11.707 3.32C116.328 79.729 113.969 81.584 112.969 82.458z" fill="#cd865f" stroke-width="none" opacity="1" stroke="none"></path><path id="SvgjsPath10587" d="M129.622 77.355c-7.154-0.05-15.063 5.703-18.159 9.063 19.551 8.428 27.338-0.607 29.285-5.533C138.964 79.265 135.614 77.397 129.622 77.355zM126.148 89.533c-8.774-0.459-13.61-3.434-13.61-3.434s5.817-6.113 13-7.026c4.54-0.579 12.405 0.864 13.631 2.001C137.74 86.236 131.928 89.836 126.148 89.533z" fill="#000000" stroke-width="none" opacity="1" stroke="none"></path></g></g></g><g id="svga-group-facehighlight-single"><path id="SvgjsPath10360" d="M141 113.974c0.035 22.622-18.292 40.994-40.938 41.025 -22.642 0.037-41.028-18.273-41.063-40.9 -0.035-22.62 18.292-41.064 40.937-41.1C122.579 72.964 140.967 91.349 141 113.974z" fill="url(#SvgjsRadialGradient10361)" opacity="1"></path><path id="SvgjsPath10364" d="M137.5 53.999c0 20.711-16.789 37.5-37.499 37.5 -20.711 0-37.501-16.789-37.501-37.5s16.79-37.5 37.501-37.5C120.711 16.499 137.5 33.288 137.5 53.999z" fill="url(#SvgjsRadialGradient10365)" opacity="1"></path></g><g id="svga-group-eyebrows-left-move" transform="matrix(1,0,0,1,0,0)"><g id="svga-group-eyebrows-left-rotate" transform="matrix(1,0,0,1,0,0)"><g id="svga-group-eyebrows-left" transform="matrix(1,0,0,1,0,0)"><path id="SvgjsPath10608" d="M53.149 74.996c9.743-15.115 36.491 5.148 38.018-1.191 0.299-1.271-0.407-2.015-1.564-2.492C75.982 65.807 57.955 61.18 53.149 74.996z" fill="#b7513b" stroke-width="none" opacity="1"></path></g></g></g><g id="svga-group-eyebrows-right-move" transform="matrix(1,0,0,1,0,0)"><g id="svga-group-eyebrows-right-rotate" transform="matrix(1,0,0,1,0,0)"><g id="svga-group-eyebrows-right" transform="matrix(1,0,0,1,0,0)"><path id="SvgjsPath10609" d="M146.851 74.996c-9.743-15.115-36.491 5.148-38.018-1.191 -0.299-1.271 0.407-2.015 1.564-2.492C124.018 65.807 142.045 61.18 146.851 74.996z" fill="#b7513b" stroke-width="none" opacity="1"></path></g></g></g><g id="svga-group-nose-single-move" transform="matrix(1,0,0,1,0,0)"><g id="svga-group-nose-single" transform="matrix(1,0,0,1,0,0)"><path id="SvgjsPath10619" d="M109.895 118.829c0.19-0.512 0.307-1.047 0.396-1.584 0.033-0.198-0.229-0.929-0.252-0.697 -0.101 0.941-0.612 2.262-1.6 2.551 -1.133 0.329-1.783-0.056-1.886-1.172 -0.104-1.125 0.297-2.619-0.109-3.665 -0.264-0.676-0.856-1.226-1.464-1.606 0.458 2.04 0.823 4.704-1.128 6.164 0.167 0.199 0.319 0.293 0.467 0.333 -0.153 0.026-0.308 0.059-0.467 0.13 -0.771 0.352-3.586 1.015-4.404 0.657 -0.193-0.085-0.622-0.152-1.16-0.204 -0.362-0.315-1.023-1.138-1.332-1.328 -1.215-0.751-1.851-2.069-1.926-3.472 -0.163-2.955 1.373-6.245 4.861-7.528 -3.578-1.004-4.064 4.863-6.408 6.172 -1.402 0.783-2.741 1.479-2.716 3.229 0.008 0.579 0.078 1.419 0.34 2.122 -0.421-0.591-0.699-1.125-0.739-0.653 -0.342 3.979 3.522 2.884 5.042 3.158 1.255 0.227 3.412 0.544 4.459 0.563 1.137 0.02 2.858-0.377 3.981-0.563 1.087-0.181 2.985 0.037 4.381-0.59 0.824-0.371 2.006-0.612 2.006-2.211l-0.402 0.326C109.855 118.916 109.878 118.874 109.895 118.829z" fill="#ecb99d" stroke-width="none" opacity="1" stroke="none"></path><path id="SvgjsPath10620" d="M90.642 116.322c0.15-0.48 0.371-0.961 0.73-1.324 -0.631 1.095-0.719 2.661-0.152 3.799 0.697 1.399 1.94 1.104 3.131 0.563 1.191-0.54 1.188-0.938 2.426-0.526 0.963 0.319 1.737 0.795 2.797 0.793 1.132-0.002 1.977-0.471 3.03-0.798 1.278-0.38 2.357-0.162 3.559 0.378 1.13 0.509 2.426 1.15 3.301-0.117 0.773-1.148 0.69-2.922 0.017-4.092 1.51 1.542 1.145 5.938-1.745 5.384 -0.397-0.08-1.098-0.563-1.451-0.469 -0.64 0.175-1.445 0.007-2.091-0.054 -1.175-0.112-2.195-0.108-3.312 0.174 -0.429 0.1-0.869 0.158-1.309 0.154 -0.525-0.007-1.057-0.268-1.556-0.237 -1.4 0.086-1.984-0.214-3.39-0.124 -1.197 0.077-1.955 1.13-3.142 0.177C90.436 119.125 90.275 117.566 90.642 116.322 90.719 116.078 90.497 116.814 90.642 116.322zM101.211 107.662c0.557 0.115 1.063 0.367 1.531 0.684 -1.391-2.209-4.931-1.408-6.339 0.345C97.843 107.926 99.562 107.296 101.211 107.662 101.478 107.719 100.678 107.543 101.211 107.662z" fill="#cd865f" stroke-width="none" opacity="1" stroke="none"></path><path id="SvgjsPath10621" d="M93.079 117.678c-0.216-1.586 0.406-3.049-0.995-1.972C91.214 116.375 93.418 120.168 93.079 117.678z" fill="#ffe9dd" stroke-width="none" opacity="1" stroke="none"></path></g></g><g id="svga-group-beardwrap" transform="matrix(1,0,0,1,0,0)"><g id="svga-group-beard-single-move" transform="matrix(1,0,0,1,0,0)"><g id="svga-group-beard-single" transform="matrix(1,0,0,1,0,0)"><path id="SvgjsPath10378" d="M100,18.13L100,18.13L100,18.13L100,18.13z" fill="#b7513b" stroke-width="none" opacity="1" stroke="none"></path></g></g></g><g id="svga-group-mustache-single-move" transform="matrix(1,0,0,1,0,0)"><g id="svga-group-mustache-single" transform="matrix(1,0,0,1,0,0)"><path id="SvgjsPath10376" d="M100,18.13L100,18.13L100,18.13L100,18.13z" fill="#b7513b" stroke-width="none" opacity="1" stroke="none"></path></g></g><g id="svga-group-hair-front" transform="matrix(1,0,0,1,0,0)"><path id="SvgjsPath10526" d="M150.81 99.442c-0.208 0-0.427-0.01-0.651-0.029 -1.972-6.396 0.331-15.486 4.25-20.951 -2.674-7.41 2.494-3.557 1.635-12.393 -0.155-1.27 0.052-2.412 0.479-3.584 -1.269-3.313-1.619-7.189-1.198-9.319 -3.629-9.571-4.898-3.055-6.83-14.894 -2.96-1.071-8.371-5.169-10.667-6.959 -5.957-4.648-14.879 9.828-22.333 4.959 -4.442 4.032-12.805 3.311-15.521 2.409 -3.829 1.928-11.513 0.935-15.506-2.411 -6.414 4.608-9.373-6.881-20.2-6.579 -6.807 4.91-4.954 5.704-12.766 8.582 -0.698 4.549-0.054 5.279-3.703 9.208 -2.154 2.286-2.162 3.08-3.032 5.394l-0.156 0 0.053 0.271 -0.038 0.099 0.071 0.074c0.474 2.586-0.39 6.584-1.227 9.184 1.617 4.484-1.381 5.75 1.942 10.274 1.073 1.461 1.47 2.024 0.169 5.686 4.717 6.58 6.05 16.876 4.265 20.953 -7.124 0.687-6.721-9.202-7.304-12.656 -1.365-9.695-11.698-2.623-9.94-11.778 -2.641-2.091-1.968-4.754-1.073-8.9 -2.452-5.161-7.248-23.656 0.681-28.05 -0.558-6.983 2.841-13.939 8.591-16.91 0.856-6.626 9.141-16.875 15.649-15.523 1.494-7.913 15.707-17.864 21.96-13.427 4.878-4.65 15.003-6.226 21.571-4.299 7.221-1.883 16.184-0.474 21.605 4.291 6.435-4.408 20.349 5.649 21.952 13.405 7.113-0.673 14.411 8.336 15.669 15.567 5.934 3.057 9.076 10.023 8.574 16.897 7.476 4.135 3.791 20.938 0.694 28.041 0.689 3.6 1.757 6.655-1.079 8.909 1.897 9.601-8.953 0.934-10.171 13.722C156.838 92.721 156.198 99.442 150.81 99.442L150.81 99.442z" fill="#b7513b" stroke-width="none" opacity="1"></path><path id="SvgjsPath10527" d="M160.293 77.838c-0.832 0.07-1.664-1.301-2.496-1.301 0-5.101 3.042-8.163 6.084-11.223 -1.014 0-2.027-2.041-3.042-1.021 -3.042-5.102 2.028-10.203 4.057-14.285 -6.085 1.021-11.154-6.121-7.099-11.223 0.704 0 1.408-0.982 2.112-1.242 -3.592-0.822-6.327-1.118-8.196-4.88 -1.014-3.061 0-6.122 2.028-9.182 -6.084 4.082-14.196 2.041-18.251-4.081 0-1.021 0-3.062 0-4.082 -2.029 5.102-7.099 9.182-13.183 7.142 -1.646 0-4.63-1.345-5.694-4.037 0.181 2.555-0.609 5.058-1.404 5.058 -6.084 3.06-14.195-1.021-15.209-8.163 0 4.082-2.028 9.182-4.056 10.203 -5.07 3.061-11.154-3.062-9.126-10.203 -2.028 7.142-8.112 10.203-14.196 8.163 -3.042-1.021-7.098-3.061-7.098-8.163 -3.042 7.142-11.154 14.284-16.224 5.102 3.042 8.162-2.577 17.345-8.244 17.345 4.015 5.491 1.147 17.345-5.951 17.345 8.111 2.041 4.056 11.223 5.069 17.345 -0.905 0-1.811 1.623-2.717 1.243 8.477 5.359 10.408 15.83 12.063 25.733 0.107-0.005 0.211-0.006 0.323-0.016 1.785-4.077 0.452-14.374-4.265-20.953 1.301-3.662 0.904-4.225-0.169-5.686 -3.323-4.524-0.325-5.79-1.942-10.274 0.837-2.599 1.701-6.598 1.227-9.184l-0.071-0.074 0.038-0.099 -0.053-0.271 0.156 0c0.87-2.314 0.878-3.108 3.032-5.394 3.649-3.93 3.005-4.66 3.703-9.208 7.813-2.878 5.959-3.672 12.766-8.582 10.827-0.302 13.786 11.187 20.2 6.579 3.993 3.346 11.677 4.338 15.506 2.411 2.717 0.902 11.079 1.623 15.521-2.409 7.454 4.869 16.376-9.607 22.333-4.959 2.296 1.79 7.707 5.888 10.667 6.959 1.932 11.839 3.201 5.323 6.83 14.894 -0.421 2.13-0.07 6.007 1.198 9.319 -0.427 1.172-0.634 2.314-0.479 3.584 0.859 8.836-4.309 4.983-1.635 12.393 -3.695 5.154-5.95 13.526-4.543 19.829C148.86 90.198 152.749 81.539 160.293 77.838z" fill="#a83c25" stroke-width="none" opacity="1"></path><path id="SvgjsPath10528" d="M132.061 10.84c1.719-1.024 8.918-0.546 10.395-5.612C142.833 11.226 136.312 11.595 132.061 10.84zM148.412 10.075c2.97 0.951 4.813 6.225 5.07 7.524C154.263 14.153 152.04 9.675 148.412 10.075zM149.553 16.707c1.437 1.297 0.971 5.101 0.507 6.122C151.689 21.296 151.909 17.608 149.553 16.707zM147.398 17.982c0.111 2.74-0.195 4.648-1.648 6.632C148.398 23.297 148.441 20.748 147.398 17.982zM155.383 23.339c0.788-0.513 5.585-0.415 6.084 0.766C161.489 21.83 156.615 21.84 155.383 23.339zM153.482 28.058c4.019-0.083 3.455-1.2 7.604-0.893C158.206 25.239 155.729 27.129 153.482 28.058zM158.806 29.716c-0.858 1.02-2.829 1.62-2.915 4.208C157.111 31.625 157.822 31.719 158.806 29.716zM162.861 36.093c3.256 1.638 4.257 3.755 5.07 7.27C168.833 39.356 167.064 36.289 162.861 36.093zM164.129 40.684c1.822 1.815 1.932 5.626 0.887 8.035C167.424 46.734 167.503 42.097 164.129 40.684zM162.607 43.618c-0.374 1.859-1.179 2.688-2.154 4.846C162.014 47.274 162.925 45.685 162.607 43.618zM163.621 55.606 163.621 55.606c1.053 3.215 1.918 4.353 0.635 6.505C166.854 60.487 165.595 57.942 163.621 55.606zM162.101 56.755c-0.05 1.904-0.276 3.379-1.394 5.739C162.271 61.371 163.026 59.411 162.101 56.755zM127.752 13.263c0.51 2.492 4.538 3.179 4.538 3.179 1.04 0.244 2.542 0.184 3.447-0.5C134.647 16.127 128.78 14.629 127.752 13.263zM122.809 8.8c1.536-2.926 4.926-4.827 8.111-5.357C126.71 2.296 123.261 4.881 122.809 8.8zM120.4-3.827c1.942 1.783 1.96 4.773 2.027 8.672C123.975 1.994 123.902-2.445 120.4-3.827zM121.414-5.485c1.539 0.299 3.979 4.701 4.184 5.74C126.17-2.325 123.604-5.916 121.414-5.485zM118.879-1.786c0.318 3.139 0.03 5.48-1.646 8.162C120.269 4.559 120.521 1.362 118.879-1.786zM115.711 7.652c-5.082 0.921-7.161 7.895-5.45 12.499C110.482 18.128 112.168 10.188 115.711 7.652zM110.641 3.825c-9.45 3.409-8.715 14.028-5.07 16.453C104.695 18.888 103.081 10.255 110.641 3.825zM99.614 4.081c-5.041 7.576 0.793 12.744 2.918 16.666C101.128 15.722 97.8 10.264 99.614 4.081zM107.473-2.806c-1.478 0.201-5.937-0.941-6.338 2.55C102.744-2.686 105.359-1.298 107.473-2.806zM110.768-4.464c-4.262-4.366-5.752-2.456-6.465-1.914C106.896-7.17 108.012-5.867 110.768-4.464zM108.613-9.821c3.063 0.032 5.401 2.261 6.211 5.229C115.605-8.087 112.316-11.478 108.613-9.821zM78.193-0.639c3.703-3.293 7.981-6.629 12.421-5.102C86.39-9.9 80.756-5.989 78.193-0.639zM83.137-0.128c-7.265 6.348-1.188 12.163 1.141 11.861C83.263 11.249 79.169 7.446 83.137-0.128zM85.291 4.335c1.063 0.854 1.756 1.699 2.028 4.846C88.166 7.073 87.671 5.06 85.291 4.335zM92.896-0.639c0.103 0.381 1.558 5.335 1.167 5.335 -0.128 1.343-0.398 1.915-1.04 3.083C97.603 5.28 93.521 0.39 92.896-0.639zM92.263-3.699c4.813-0.473 4.962 5.761 4.689 7.524C99.773-0.397 96.927-6.515 92.263-3.699zM80.221 13.901c2.226 0.595 0.982 3.246 1.268 7.015C82.734 18.018 83.297 13.608 80.221 13.901zM75.166 9.612c-2.058-8.338-8.633-6.934-8.633-6.934 1.32-0.367 6.271 3.712 7.03 9.422 0.219 1.134 0.444 3.079 0.701 4.607C74.584 15.687 75.839 11.99 75.166 9.612zM68.307 8.162c2.32 1.8 0.981 7.046 0 9.821C71.302 15.007 72.167 9.307 68.307 8.162zM64.505 9.437c1.449 1.902-1.703 5.647-3.676 8.163C64.029 16.283 67.604 11.589 64.505 9.437zM69.194-6.25c-2.841-0.465-5.571 3.311-4.816 6.122C64.731-1.832 67.176-5.672 69.194-6.25zM67.8-2.551c-2.279 0.454-2.191 3.93-1.141 5.356C66.538 1.785 66.504-2.082 67.8-2.551zM53.351 11.478c-4.011-1.786-7.875-0.083-8.492 3.955C46.927 12.637 49.917 11.543 53.351 11.478zM51.069 15.049c-2.755-1.719-6.26 1.727-5.577 4.847C45.919 17.705 48.8 14.798 51.069 15.049zM49.422 18.365c-3.4 0.307-3.967 5.263-1.901 6.887C46.738 23.542 47.416 19.313 49.422 18.365zM40.93 23.722c2.196 1.012 4.552 2.976 4.277 2.976 0.792 1.14 0.959 1.559 1.299 2.891C47.386 25.745 44.818 24.23 40.93 23.722zM42.704 28.186c1.926 1.488 3.417 4.226 2.155 7.015C47.482 33.076 46.363 29.374 42.704 28.186zM40.485 29.368c-0.172-0.171-0.323-0.155-0.317-0.162 0.555 0.076 0.272 3.473-1.024 4.476 -0.413 0.455-1.79 1.805-2.271 2.284C42.358 34.09 41.5 30.358 40.485 29.368zM38.268 38.771c1.558 1.928 1.78 4.979 1.446 5.314 -0.309 2.233-0.127 1.246-0.558 3.614C41.32 45.208 42.168 41.147 38.268 38.771zM36.367 42.47c1.185 0.987 0.939 5.241-0.761 6.122C38.497 48.388 38.726 43.236 36.367 42.47zM32.691 42.98c1.353 1.627 0.405 2.484-3.802 7.27C33.319 48.206 35.744 44.46 32.691 42.98zM32.691 55.097c2.448 1.836 0.636 6.208-0.381 7.269C35.531 60.846 36.123 55.928 32.691 55.097zM36.747 59.178c1.534 0.44-0.776 4.06-1.648 5.101C37.811 62.885 39.197 59.095 36.747 59.178zM79.428 17.256c0.258 2.781-2.367 5.437-2.882 5.956C80.154 22.118 80.116 18.763 79.428 17.256zM120.893 18.134c0 0-1.006-1.314-1.76-2.405 0.485 2.857 2.174 5.255 5.07 5.782C123.805 21.214 120.893 18.54 120.893 18.134zM121.837 15.049c0.377 2.068 1.907 3.618 4.057 3.742C124.583 18.038 123.274 16.978 121.837 15.049zM166.453 68.786c-0.839 1.81-2.587 2.872-3.719 4.761C166.084 71.548 166.283 70.411 166.453 68.786zM165.438 73.887c-1.014 0.524-2.677 1.033-4.395 3.062C163.563 76.018 164.425 74.814 165.438 73.887zM32.944 68.105c0.782 1.301 1.849 2.354 3.042 3.062C35.235 69.891 34.186 68.863 32.944 68.105zM33.283 71.846c1.256 4.162 3.379 3.742 3.379 3.742C35.529 74.953 33.666 72.606 33.283 71.846z" fill="#c66854" stroke-width="none" opacity="1"></path><path id="SvgjsPath10529" d="M168.08 37.856c0.439-6.042-2.227-13.634-8.619-16.927 -1.242-7.001-8.668-16.365-15.699-15.692 -1.551-7.575-15.768-17.858-22.165-13.458 -4.675-4.112-13.479-6.324-21.624-4.224 -6.935-2.012-17.092-0.073-21.603 4.224 -6.164-4.382-20.718 5.766-22.167 13.458 -6.271-1.292-14.833 9.064-15.688 15.683 -5.429 2.796-9.194 9.783-8.627 16.937 -8.059 4.451-2.987 23.388-0.684 28.263 -0.237 1.117-0.891 3.905-0.762 5.112 0.011 0.459 0.029 0.765 0.039 0.765 0.294 1.02 0.365 1.988 1.783 3.111 -1.767 9.213 8.648 2.297 9.976 11.704 0.668 3.964 0.144 8.049 2.901 11.152 1.391 1.519 3.904 1.903 4.894 1.734 1.933-4.083 0.56-14.696-4.132-21.285 1.653-4.674 0.4-4.524-1.217-7.224 -1.506-2.513 0.361-5.153-0.911-8.692 1.407-4.349 1.496-7.771 1.189-9.316 0.01 0 0.01 0 0-0.01 0.94-2.462 0.88-3.187 3.04-5.479 3.719-4.005 3.097-4.882 3.755-9.192 7.218-1.782 5.407-3.808 12.522-7.778 5.82-3.248 13.681 10.589 20.163 5.931 1.431 1.197 2.509 1.708 4.121 2.347 0.724 0.221 0.59 0.26 1.822 0.469 0.268 0.031 6.23 0.379 6.23 0.102 0.588-0.06 2.819-0.285 3.368-0.561 0.933 0.311 2.433 0.465 3.369 0.561 0 0.01 1.622 0.112 3.229 0.112 3.639 0.142 6.949-1.239 8.932-3.03 7.635 4.975 16.719-9.591 23.073-4.03 5.963 5.219 7.936 5.26 9.635 5.877 0.054 0.33 0.259 2.477 0.386 3.296 1.094 5.448 3.712 4.289 6.398 11.396 -0.203 1.022-0.461 4.964 1.189 9.296 -0.367 1.02-0.627 2.225-0.458 3.611 0.842 8.636-4.333 4.96-1.673 12.314 -3.565 4.975-6.371 14.319-4.149 21.243 0.01 0.011 0.01 0.031 0.018 0.042 7.612 0.869 7.239-9.595 7.795-12.887 1.317-9.33 11.76-2.561 9.985-11.704 1.439-1.147 1.508-2.091 1.772-3.111 0.011 0 0.032-0.306 0.042-0.755 0.135-1.285-0.561-4.111-0.755-5.132C169.89 63.544 176.97 42.763 168.08 37.856zM168.662 64.64c-0.066 0.372-0.266 1.149-0.483 1.745 0.075 0.439 1.065 5.52 0.634 5.52 -0.313 1.021-0.106 1.572-1.517 2.918 1.396 8.56-9.47 1.01-11.043 11.715 -0.932 5.7 0.069 11.547-5.895 12.517 -1.192-5.739 1.433-15.507 4.29-20.477 -2.27-6.842 2.923-3.58 2.049-12.57 -0.159-1.346-0.021-2.284 0.269-3.306 -0.739-2.165-1.521-6.084-1.238-8.764 -2.384-8.027-0.61-3.267-4.884-9.112 -0.018-0.031-0.449-0.785-0.465-0.816l-0.01-0.011c-1.057-2.263-0.765-3.4-1.357-5.897 -0.002 0-5.551-2.566-10.486-6.758 -6.139-5.211-15.494 8.794-23.229 4.809 -3.995 3.086-11.915 2.875-15.313 2 -1.901 0.436-7.221 0.795-10.4 0.143 -0.081-0.017-1.438-0.418-1.506-0.439 -1.102-0.336-2.462-1.079-3.427-1.704 -6.963 4.059-14.429-11.927-21.948-5.806 -4.398 3.581-6.598 6.223-11.739 7.755 -0.396 1.02-0.226 3.548-1.367 5.897v0.011c0 0-0.219 0.767-2.307 2.969 -2.607 2.836-2.287 4.612-3.051 6.968 0.282 2.692-0.469 6.161-1.229 8.765 1.031 3.708-1.207 6.535 1.436 9.886 2.151 2.793 1.439 3.041 0.883 5.989 2.547 4.477 5.584 14.194 4.279 20.478 -10.286-1.63-0.016-17.209-12.887-19.346 -1.931-0.3-3.292-0.333-3.823-1.836 -0.31-0.895-0.318-2.528-0.229-3.062 -1.387-1.429-1.216-1.897-1.504-2.918 -0.504 0 0.623-5.02 0.623-5.509 -0.374-1.021-7.082-23.671 0.742-28.518 0-7.009 3.865-13.862 8.411-16.672 0.049-0.204 0.107-0.408 0.168-0.623 0-0.01 0.009-0.02 0.009-0.03 1.941-6.005 9.653-15.581 15.699-14.774 1.413-6.243 15.997-17.535 21.86-13.54 6.708-4.132 14.734-5.069 21.296-3.713 8.431-1.547 16.608 0.454 21.314 3.713 5.643-3.844 19.766 6.539 21.861 13.54 6.383-0.851 14.061 9.505 15.708 14.794v0.01c0.06 0.215 0.121 0.419 0.179 0.623 5.865 4.039 7.521 9 8.379 16.295 0 0.117 0.021 0.191 0.021 0.367C174.08 42.33 170.504 55.007 168.662 64.64z" fill="#891b03" stroke-width="none" opacity="1"></path></g><g id="svga-group-glasses-single-move" transform="matrix(1,0,0,1,0,0)"><g id="svga-group-glasses-single" transform="matrix(1,0,0,1,0,0)"><path id="SvgjsPath10610" d="M148.02 85.54c-0.11 1.96-0.35 4.05-0.59 6.25 -1.04 9.74-5.26 12.49-24.57 11.1 -6.3-0.45-11.06-4.04-13.41-10.1 -0.99-2.55-1.87-5.52-2.37-8.48C116.7 77.81 139.4 77.62 148.02 85.54zM51.98 85.54c0.11 1.96 0.35 4.05 0.59 6.25 1.04 9.74 5.26 12.49 24.57 11.1 6.3-0.45 11.06-4.04 13.41-10.1 0.99-2.55 1.87-5.52 2.37-8.48C83.3 77.81 60.6 77.62 51.98 85.54z" fill="#ffffff" stroke-width="none" opacity="0.2"></path><path id="SvgjsPath10611" d="M148.02 85.54c-8.62-7.92-31.33-7.73-40.93-1.23 -0.36-2.11-0.52-4.22-0.36-6.16h0c0.66-7.81 13.45-6.88 20.98-7.17C146.33 70.26 148.56 76.34 148.02 85.54zM93.27 78.14L93.27 78.14c-0.66-7.81-13.45-6.88-20.99-7.17 -18.61-0.71-20.85 5.37-20.31 14.56 8.62-7.92 31.33-7.73 40.93-1.23C93.26 82.19 93.43 80.09 93.27 78.14z" fill="#ffffff" stroke-width="none" opacity="0.4"></path><path id="SvgjsPath10612" d="M149.91 75.08c-0.62-1.42-1.48-2.7-2.56-3.65 -2.47-2.16-7.08-2.46-11.39-2.71 -4.19-0.23-12.15-0.42-17.46-0.08 -13.8 0.9-13.57 7-13.57 7 -1.81 0-8.03 0-9.84 0 0 0 0.23-6.11-13.57-7 -5.32-0.34-13.27-0.16-17.46 0.08 -4.31 0.24-8.93 0.55-11.39 2.71 -1.09 0.95-1.94 2.22-2.56 3.65l-8.19-1.58v3.99c7.17 1.38 9.02 1.82 10.02 1.76 -0.25 3.01-0.36 8.35 0.29 12.59 1.54 10.07 5.78 12.78 24.94 11.4 6.36-0.46 11.35-4.23 13.72-10.33 1.86-4.8 3.14-9.09 2.81-14.28h12.64c-0.33 5.19 0.95 9.49 2.81 14.28 2.36 6.1 7.36 9.87 13.72 10.33 19.17 1.38 23.41-1.33 24.94-11.4 0.65-4.24 0.54-9.58 0.29-12.59 1 0.06 2.85-0.38 10.02-1.76V73.5L149.91 75.08zM90.07 92.61c-2.27 5.87-6.88 9.35-12.98 9.78 -19.08 1.37-22.61-1.33-24.04-10.68 -0.76-5.01-0.35-11.52-0.25-12.52 0.19-0.03 0.31-0.06 0.32-0.1 1.09-6.36 6.45-8.42 29.02-7.35 3.73 0.18 6.92 0.88 8.69 2.75 1.04 1.09 2.04 2.66 1.95 4.17l0.04 0C93.02 81.2 92.44 86.5 90.07 92.61zM146.94 91.72c-1.43 9.35-4.96 12.05-24.04 10.68 -6.1-0.44-10.71-3.92-12.98-9.78 -2.37-6.11-2.94-11.41-2.74-13.95l0.04 0c-0.09-1.5 0.91-3.07 1.95-4.17 1.77-1.87 4.96-2.57 8.69-2.75 22.57-1.06 27.92 0.99 29.02 7.35 0.01 0.04 0.13 0.08 0.32 0.1C147.29 80.2 147.71 86.71 146.94 91.72z" fill="#4d1f1f" stroke-width="none" opacity="1"></path><path id="SvgjsPath10613" d="M104.94 75.34c0.17-1.26 1.63-5.92 13.54-6.69 5.32-0.34 13.27-0.16 17.46 0.08 4.31 0.24 8.93 0.55 11.39 2.71 1.09 0.95 1.94 2.22 2.56 3.65l0 0c-3.72-6.16-10.22-5.54-14.01-5.75 -2.3-0.13-6.21-0.27-10.28-0.27 -2.77 0-5.15 0.06-7.06 0.19C111.48 69.71 107.56 70.92 104.94 75.34zM95.06 75.34c-0.17-1.26-1.63-5.92-13.54-6.69 -5.32-0.34-13.27-0.16-17.46 0.08 -4.31 0.24-8.93 0.55-11.39 2.71 -1.09 0.95-1.94 2.22-2.56 3.65l0 0c3.72-6.16 10.22-5.54 14.01-5.75 2.3-0.13 6.21-0.27 10.28-0.27 2.77 0 5.15 0.06 7.06 0.19C88.52 69.71 92.44 70.92 95.06 75.34z" fill="#5c2e2e" stroke-width="none" opacity="1"></path></g></g></g></g></g><rect id="svga-credit-rect" width="200" height="15" x="0" y="185" fill="#ecf0f1" opacity="0.5" style="display: none;"></rect><text id="svga-credit-text" font-family="Avenir Next, Roboto, Helvetica, Arial, sans-serif" font-size="10px" text-anchor="start" font-weight="400" size="10px" anchor="start" weight="400" fill="#333333" x="33.3125" y="182.609375" style="display: none;"><tspan id="SvgjsTspan10347" dy="13" x="33.3125">Created on AvatarMaker.com</tspan></text></g></svg>